<svg xmlns="http://www.w3.org/2000/svg" width="20" height="20" viewBox="0 0 20 20" fill="none"><g id="left-arrow 1"><path id="Vector" d="M7.12013 15.156L12.2761 10L7.12013 4.844C7.06929 4.79317 7.02479 4.73833 6.98663 4.68058C6.71971 4.27625 6.76421 3.72683 7.12013 3.37083C7.52688 2.96408 8.18646 2.96409 8.59329 3.37083L14.4858 9.26342C14.5102 9.28784 14.5333 9.31334 14.555 9.33984C14.7069 9.52517 14.7909 9.75825 14.7909 10C14.7909 10.2763 14.6812 10.5412 14.4858 10.7366L8.59329 16.6291C8.18646 17.0359 7.52688 17.0359 7.12013 16.6291C7.06929 16.5783 7.02479 16.5235 6.98663 16.4657C6.71971 16.0614 6.76421 15.5119 7.12013 15.156Z" fill="white"></path></g></svg>