<svg xmlns="http://www.w3.org/2000/svg" width="28" height="28" viewBox="0 0 28 28" fill="none"><g id="life-buoy"><path id="Vector" d="M13.9999 25.6666C20.4432 25.6666 25.6666 20.4433 25.6666 14C25.6666 7.55666 20.4432 2.33331 13.9999 2.33331C7.5566 2.33331 2.33325 7.55666 2.33325 14C2.33325 20.4433 7.5566 25.6666 13.9999 25.6666Z" stroke="#FE6462" stroke-width="2" stroke-linecap="round" stroke-linejoin="round"></path><path id="Vector_2" d="M13.9999 18.6666C16.5772 18.6666 18.6666 16.5773 18.6666 14C18.6666 11.4227 16.5772 9.33331 13.9999 9.33331C11.4226 9.33331 9.33325 11.4227 9.33325 14C9.33325 16.5773 11.4226 18.6666 13.9999 18.6666Z" stroke="#FE6462" stroke-width="2" stroke-linecap="round" stroke-linejoin="round"></path><path id="Vector_3" d="M5.75171 5.75165L10.6984 10.6983" stroke="#FE6462" stroke-width="2" stroke-linecap="round" stroke-linejoin="round"></path><path id="Vector_4" d="M17.3018 17.3016L22.2484 22.2483" stroke="#FE6462" stroke-width="2" stroke-linecap="round" stroke-linejoin="round"></path><path id="Vector_5" d="M17.3018 10.6983L22.2484 5.75165" stroke="#FE6462" stroke-width="2" stroke-linecap="round" stroke-linejoin="round"></path><path id="Vector_6" d="M17.3018 10.6984L21.4201 6.58002" stroke="#FE6462" stroke-width="2" stroke-linecap="round" stroke-linejoin="round"></path><path id="Vector_7" d="M5.75171 22.2483L10.6984 17.3016" stroke="#FE6462" stroke-width="2" stroke-linecap="round" stroke-linejoin="round"></path></g></svg>