<svg xmlns="http://www.w3.org/2000/svg" width="28" height="28" viewBox="0 0 28 28" fill="none"><g id="truck"><path id="Vector" d="M18.6667 3.5H1.16675V18.6667H18.6667V3.5Z" stroke="#00BD39" stroke-width="2" stroke-linecap="round" stroke-linejoin="round"></path><path id="Vector_2" d="M18.6667 9.33331H23.3334L26.8334 12.8333V18.6666H18.6667V9.33331Z" stroke="#00BD39" stroke-width="2" stroke-linecap="round" stroke-linejoin="round"></path><path id="Vector_3" d="M6.41667 24.5C8.0275 24.5 9.33333 23.1942 9.33333 21.5834C9.33333 19.9725 8.0275 18.6667 6.41667 18.6667C4.80584 18.6667 3.5 19.9725 3.5 21.5834C3.5 23.1942 4.80584 24.5 6.41667 24.5Z" stroke="#00BD39" stroke-width="2" stroke-linecap="round" stroke-linejoin="round"></path><path id="Vector_4" d="M21.5834 24.5C23.1942 24.5 24.5001 23.1942 24.5001 21.5834C24.5001 19.9725 23.1942 18.6667 21.5834 18.6667C19.9726 18.6667 18.6667 19.9725 18.6667 21.5834C18.6667 23.1942 19.9726 24.5 21.5834 24.5Z" stroke="#00BD39" stroke-width="2" stroke-linecap="round" stroke-linejoin="round"></path></g></svg>