<svg xmlns="http://www.w3.org/2000/svg" width="138" height="121" viewBox="0 0 138 121" fill="none"><g id="Group 1261153373"><path id="Vector" d="M128.558 25.2961L128.888 13.5204C128.928 12.0854 128.087 10.7709 126.769 10.2049C125.45 9.63889 123.917 9.93651 122.905 10.9549L114.6 19.3103C113.794 20.1211 114.059 21.4884 115.109 21.9404C115.529 22.1196 116.004 22.1139 116.421 21.9253L119.687 20.4341C120.537 20.0456 121.511 20.0332 122.369 20.4031C123.22 20.7674 123.879 21.4724 124.188 22.3447L125.406 25.7903C125.558 26.2164 125.879 26.5599 126.296 26.7388L126.302 26.7426C127.353 27.1882 128.525 26.4375 128.558 25.2961Z" fill="black"></path><path id="Vector_2" opacity="0.32" d="M11.153 109.156C10.8489 109.406 10.4391 109.523 10.0241 109.444C9.27868 109.301 8.78934 108.583 8.93197 107.838C8.94198 107.785 9.18893 106.504 9.81032 104.384C10.0229 103.655 10.7869 103.24 11.5158 103.453C12.2428 103.667 12.6595 104.429 12.4455 105.156C11.8654 107.136 11.6325 108.341 11.6298 108.352C11.5652 108.68 11.3916 108.959 11.153 109.156Z" fill="#202020"></path><path id="Vector_3" opacity="0.32" d="M106.826 48.6836C105.91 49.4365 104.943 50.1698 103.955 50.8636C103.335 51.2991 102.477 51.1487 102.041 50.529C101.606 49.9093 101.761 49.0497 102.376 48.6154C104.177 47.3505 105.875 45.9633 107.417 44.4909C107.964 43.9671 108.834 43.9869 109.359 44.5357C109.883 45.0827 109.863 45.9523 109.314 46.4776C108.523 47.2346 107.685 47.9772 106.826 48.6836ZM98.2931 54.2836C98.2206 54.3432 98.1423 54.3958 98.055 54.4409C96.0967 55.4645 93.9923 56.4185 91.798 57.2776C91.0914 57.5534 90.2961 57.2059 90.0185 56.5008C89.7427 55.7942 90.0902 54.9989 90.7953 54.7213C92.8983 53.8988 94.9124 52.9864 96.7834 52.008C97.455 51.6572 98.2849 51.917 98.6357 52.5886C98.9427 53.1747 98.7845 53.8796 98.2931 54.2836ZM113.717 41.5364C113.236 41.9318 112.53 41.9605 112.014 41.5671C111.41 41.1098 111.293 40.2464 111.752 39.644C113.048 37.9348 114.205 36.1452 115.286 34.1693C115.649 33.5057 116.485 33.2603 117.148 33.6242C117.814 33.9899 118.057 34.8234 117.693 35.4871C116.562 37.5555 115.298 39.5103 113.936 41.3026C113.872 41.3906 113.798 41.4695 113.717 41.5364ZM85.8035 59.2229C85.6639 59.3377 85.5009 59.4243 85.3183 59.4796C83.2176 60.0958 80.9922 60.6576 78.7033 61.153C77.9608 61.3131 77.2311 60.8436 77.071 60.1011C76.9109 59.3587 77.3804 58.6289 78.1228 58.4688C80.3469 57.9882 82.5075 57.4413 84.5462 56.8434C85.2743 56.6299 86.0385 57.0475 86.2506 57.7739C86.4087 58.3194 86.2154 58.8842 85.8035 59.2229ZM72.6703 62.093C72.4864 62.2441 72.2616 62.349 72.009 62.3878C69.8463 62.7232 67.5804 63.016 65.2724 63.2575C64.5167 63.3366 63.8416 62.7895 63.764 62.0356C63.6863 61.2817 64.2319 60.6049 64.9858 60.5272C67.2496 60.2895 69.4709 60.0037 71.5891 59.6754C72.3385 59.5599 73.0413 60.0723 73.1569 60.8218C73.2336 61.3187 73.0327 61.795 72.6703 62.093ZM59.3088 63.6189C59.1179 63.7759 58.8813 63.8845 58.6162 63.9188C56.4124 64.2079 54.2381 64.612 52.156 65.1211C51.4196 65.3029 50.675 64.8514 50.495 64.1136C50.3132 63.3772 50.7661 62.6344 51.5025 62.4526C53.683 61.9189 55.9567 61.4952 58.2608 61.1947C59.0119 61.0956 59.7032 61.6265 59.8005 62.3791C59.8617 62.8679 59.6624 63.3282 59.3088 63.6189ZM14.2323 99.4892C13.854 99.8002 13.3224 99.8996 12.8379 99.6995C12.1359 99.4115 11.7995 98.6096 12.0875 97.9076C12.9559 95.7892 13.9355 93.6978 14.996 91.6939C15.3491 91.0243 16.1821 90.769 16.8531 91.1239C17.5242 91.4788 17.7781 92.31 17.4232 92.9811C16.4028 94.9075 15.4624 96.9133 14.628 98.9505C14.5419 99.1665 14.402 99.3496 14.2323 99.4892ZM46.2782 66.8371C46.1651 66.9302 46.0356 67.007 45.8905 67.0611C43.8427 67.8353 41.8338 68.7434 39.9265 69.7606C39.2575 70.1181 38.4256 69.8629 38.0681 69.1939C37.7123 68.5235 37.9675 67.6915 38.6347 67.3354C40.6464 66.265 42.7593 65.307 44.9184 64.4916C45.6276 64.2225 46.4202 64.5811 46.6892 65.2903C46.9024 65.8558 46.7201 66.4737 46.2782 66.8371ZM20.5341 87.6261C20.078 88.0012 19.4131 88.0501 18.8972 87.7039C18.2685 87.2816 18.0998 86.4278 18.5221 85.7991C19.812 83.8762 21.2053 82.0284 22.6642 80.3073C23.1532 79.7274 24.0202 79.6575 24.5983 80.148C25.1765 80.6385 25.2482 81.504 24.7576 82.0822C23.3649 83.7252 22.0335 85.4895 20.8006 87.327C20.7243 87.4431 20.6348 87.5433 20.5341 87.6261ZM34.4387 73.1471C34.4139 73.1675 34.3892 73.1878 34.363 73.2064C32.6015 74.4622 30.8948 75.8566 29.288 77.3438C28.7384 77.8609 27.8621 77.8258 27.3474 77.2683C26.8309 76.7123 26.8654 75.8425 27.4229 75.3277C29.1155 73.7612 30.9138 72.2944 32.7698 70.9698C33.3883 70.5293 34.2442 70.6729 34.6865 71.29C35.1069 71.8806 34.992 72.6922 34.4387 73.1471Z" fill="#202020"></path><path id="Vector_4" opacity="0.32" d="M120.232 29.7772C119.856 30.0868 119.329 30.185 118.845 29.9899C118.141 29.7066 117.803 28.9061 118.087 28.2021C118.483 27.2213 118.873 26.1862 119.281 25.0455C119.536 24.3322 120.322 23.9584 121.035 24.2134C121.748 24.4683 122.122 25.2543 121.867 25.9677C121.446 27.1461 121.043 28.2124 120.633 29.231C120.543 29.4531 120.404 29.6362 120.232 29.7772Z" fill="#202020"></path></g></svg>