<svg xmlns="http://www.w3.org/2000/svg" width="154" height="31" viewBox="0 0 154 31" fill="none"><path d="M145.314 26.1522L153.047 17.2656C153.99 16.1831 154.176 14.6337 153.517 13.3589C152.858 12.0842 151.484 11.3404 150.056 11.4846L138.334 12.6632C137.197 12.7776 136.533 14.002 137.057 15.0182C137.268 15.4233 137.638 15.7208 138.08 15.8398L141.55 16.7621C142.454 17.0024 143.213 17.6112 143.641 18.4419C144.067 19.2635 144.129 20.227 143.813 21.0967L142.566 24.5319C142.412 24.9576 142.442 25.4267 142.65 25.8295L142.653 25.8364C143.181 26.848 144.564 27.0127 145.314 26.1522Z" fill="white"></path><path opacity="0.3" d="M1.36751 16.3599C0.973872 16.3599 0.582524 16.1905 0.312468 15.8655C-0.172716 15.2819 -0.0948991 14.4168 0.488695 13.9316C0.52989 13.8973 1.53457 13.0642 3.36088 11.8215C3.98796 11.3936 4.84163 11.5584 5.2696 12.1854C5.69528 12.8125 5.53277 13.6662 4.90569 14.0918C3.20068 15.2522 2.25548 16.0349 2.24633 16.0417C1.98772 16.2546 1.67647 16.3599 1.36751 16.3599Z" fill="white"></path><path opacity="0.3" d="M113.673 30.4146C112.488 30.4146 111.275 30.3665 110.071 30.275C109.315 30.2178 108.748 29.5564 108.805 28.8012C108.862 28.0459 109.528 27.4806 110.279 27.5355C112.474 27.7026 114.666 27.7095 116.792 27.5516C117.548 27.4943 118.207 28.0619 118.264 28.8195C118.321 29.5747 117.754 30.2338 116.996 30.291C115.904 30.3734 114.785 30.4146 113.673 30.4146ZM103.525 29.3207C103.431 29.3207 103.338 29.3115 103.242 29.2909C101.079 28.8378 98.8474 28.2381 96.6068 27.5081C95.8859 27.2724 95.4923 26.4988 95.7258 25.7779C95.9615 25.057 96.7351 24.6633 97.456 24.8968C99.6027 25.5971 101.738 26.1716 103.805 26.6041C104.546 26.7597 105.022 27.4875 104.866 28.229C104.731 28.8767 104.162 29.3207 103.525 29.3207ZM123.535 29.2703C122.912 29.2703 122.349 28.8446 122.2 28.213C122.024 27.476 122.482 26.7345 123.219 26.5606C125.306 26.064 127.336 25.4163 129.425 24.5764C130.128 24.2949 130.929 24.6359 131.211 25.3385C131.492 26.0434 131.151 26.8421 130.448 27.1236C128.261 28.0024 126.043 28.7096 123.853 29.2291C123.747 29.2566 123.64 29.2703 123.535 29.2703ZM90.7412 25.2034C90.5604 25.2034 90.3796 25.1668 90.2033 25.0936C88.1894 24.2354 86.1136 23.2559 84.031 22.1848C83.3558 21.8369 83.0904 21.0107 83.4383 20.3356C83.7861 19.6605 84.6123 19.395 85.2874 19.7428C87.3105 20.7841 89.3268 21.7339 91.2813 22.567C91.9793 22.8645 92.3043 23.6724 92.0068 24.3681C91.7825 24.8899 91.2744 25.2034 90.7412 25.2034ZM78.7741 19.0792C78.536 19.0792 78.2957 19.0173 78.076 18.8869C76.1925 17.7723 74.2564 16.5594 72.3202 15.2801C71.6863 14.8612 71.5123 14.0099 71.9311 13.3782C72.35 12.7466 73.2013 12.5703 73.8329 12.9892C75.7325 14.2433 77.6298 15.4334 79.4744 16.5251C80.1266 16.9118 80.344 17.754 79.9572 18.4063C79.7009 18.8388 79.2432 19.0792 78.7741 19.0792ZM67.4843 11.7716C67.2372 11.7716 66.9854 11.7053 66.7589 11.5634C64.8731 10.387 62.9369 9.31824 61.0053 8.38906C60.3211 8.06179 60.0327 7.24018 60.3622 6.55589C60.6895 5.87159 61.5111 5.58553 62.1954 5.9128C64.2185 6.88546 66.244 8.0023 68.2145 9.23357C68.8576 9.63408 69.0544 10.4832 68.6516 11.1263C68.3884 11.5428 67.9421 11.7716 67.4843 11.7716ZM9.88473 10.8493C9.39497 10.8493 8.92125 10.5884 8.67408 10.1261C8.31477 9.45786 8.56421 8.62481 9.23249 8.2655C11.2487 7.1807 13.3337 6.18744 15.4255 5.31319C16.1235 5.02025 16.9291 5.35209 17.222 6.05241C17.515 6.75272 17.1831 7.55601 16.4828 7.84895C14.4711 8.68887 12.4709 9.64094 10.5324 10.6845C10.3287 10.7967 10.1044 10.8493 9.88473 10.8493ZM55.3754 5.98145C55.2289 5.98145 55.0801 5.95857 54.9337 5.90822C52.8602 5.20562 50.7318 4.63117 48.6125 4.20548C47.8687 4.05673 47.3881 3.33125 47.5369 2.58745C47.6879 1.84366 48.4134 1.36306 49.1549 1.51182C51.3886 1.96267 53.6291 2.56457 55.8147 3.30608C56.5334 3.54867 56.9179 4.32908 56.6753 5.0477C56.4807 5.61986 55.9475 5.98145 55.3754 5.98145ZM22.2867 5.68852C21.6962 5.68852 21.1516 5.30403 20.973 4.70899C20.7556 3.98351 21.1676 3.21683 21.893 2.99941C24.1107 2.33343 26.3604 1.79102 28.5804 1.38823C29.3265 1.25091 30.0405 1.74753 30.1755 2.49361C30.3105 3.2397 29.8162 3.95376 29.0701 4.08879C26.9509 4.47328 24.8019 4.9905 22.6826 5.62673C22.5499 5.66792 22.4172 5.68852 22.2867 5.68852ZM42.2227 3.33583C42.1907 3.33583 42.1587 3.33583 42.1266 3.33354C39.9685 3.18478 37.7645 3.17792 35.5789 3.30608C34.826 3.35643 34.1714 2.77283 34.1279 2.0153C34.0821 1.25777 34.6612 0.607817 35.4187 0.564333C37.7211 0.429306 40.0417 0.438461 42.3166 0.594086C43.0741 0.646724 43.644 1.30127 43.5936 2.0588C43.5433 2.782 42.9391 3.33583 42.2227 3.33583Z" fill="white"></path><path opacity="0.3" d="M136.036 24.3254C135.549 24.3254 135.08 24.0668 134.83 23.609C134.466 22.9431 134.713 22.11 135.379 21.7461C136.309 21.2403 137.268 20.6888 138.307 20.0663C138.956 19.6772 139.801 19.8878 140.19 20.5378C140.579 21.1877 140.369 22.0322 139.719 22.4213C138.645 23.0644 137.657 23.6319 136.693 24.1583C136.482 24.2727 136.258 24.3254 136.036 24.3254Z" fill="white"></path></svg>