<svg xmlns="http://www.w3.org/2000/svg" width="138" height="121" viewBox="0 0 138 121" fill="none"><g id="Group 1261153375"><path id="Vector" d="M9.34389 25.2961L9.01474 13.5204C8.97396 12.0854 9.8148 10.7709 11.1335 10.2049C12.4523 9.63889 13.9853 9.93651 14.9968 10.9549L23.3027 19.3103C24.1086 20.1211 23.8436 21.4884 22.7934 21.9404C22.3735 22.1196 21.8981 22.1139 21.4814 21.9253L18.2157 20.4341C17.3648 20.0456 16.3913 20.0332 15.5331 20.4031C14.6825 20.7674 14.0228 21.4724 13.7144 22.3447L12.4961 25.7903C12.3441 26.2164 12.0232 26.5599 11.6065 26.7388L11.6003 26.7426C10.5495 27.1882 9.37718 26.4375 9.34389 25.2961Z" fill="black"></path><path id="Vector_2" opacity="0.3" d="M126.749 109.156C127.053 109.406 127.463 109.523 127.878 109.444C128.624 109.301 129.113 108.583 128.97 107.838C128.96 107.785 128.713 106.504 128.092 104.384C127.879 103.655 127.115 103.24 126.387 103.453C125.659 103.667 125.243 104.429 125.457 105.156C126.037 107.136 126.27 108.341 126.273 108.352C126.337 108.68 126.511 108.959 126.749 109.156Z" fill="#202020"></path><path id="Vector_3" opacity="0.3" d="M31.0762 48.6836C31.9919 49.4365 32.9593 50.1698 33.9473 50.8636C34.567 51.2991 35.4255 51.1487 35.861 50.529C36.2964 49.9093 36.1411 49.0497 35.5264 48.6154C33.725 47.3505 32.0271 45.9633 30.4851 44.4909C29.9381 43.9671 29.0685 43.9869 28.5432 44.5357C28.0193 45.0827 28.0391 45.9523 28.5879 46.4776C29.3788 47.2346 30.2171 47.9772 31.0762 48.6836ZM39.6092 54.2836C39.6817 54.3432 39.76 54.3958 39.8473 54.4409C41.8056 55.4645 43.91 56.4185 46.1043 57.2776C46.8109 57.5534 47.6062 57.2059 47.8838 56.5008C48.1595 55.7942 47.812 54.9989 47.1069 54.7213C45.004 53.8988 42.9899 52.9864 41.1189 52.008C40.4473 51.6572 39.6174 51.917 39.2666 52.5886C38.9596 53.1747 39.1178 53.8796 39.6092 54.2836ZM24.1857 41.5364C24.6666 41.9318 25.3718 41.9605 25.8879 41.5671C26.492 41.1098 26.6094 40.2464 26.1507 39.644C24.8539 37.9348 23.6973 36.1452 22.6168 34.1693C22.2529 33.5057 21.4175 33.2603 20.7539 33.6242C20.0888 33.9899 19.8449 34.8234 20.2088 35.4871C21.3406 37.5555 22.6044 39.5103 23.9662 41.3026C24.0301 41.3906 24.1044 41.4695 24.1857 41.5364ZM52.0988 59.2229C52.2384 59.3377 52.4013 59.4243 52.584 59.4796C54.6847 60.0958 56.9101 60.6576 59.199 61.153C59.9415 61.3131 60.6712 60.8436 60.8313 60.1011C60.9914 59.3587 60.5219 58.6289 59.7795 58.4688C57.5554 57.9882 55.3948 57.4413 53.3561 56.8434C52.6279 56.6299 51.8638 57.0475 51.6517 57.7739C51.4936 58.3194 51.6869 58.8842 52.0988 59.2229ZM65.232 62.093C65.4158 62.2441 65.6407 62.349 65.8933 62.3878C68.056 62.7232 70.3219 63.016 72.6299 63.2575C73.3856 63.3366 74.0606 62.7895 74.1383 62.0356C74.216 61.2817 73.6704 60.6049 72.9165 60.5272C70.6527 60.2895 68.4314 60.0037 66.3132 59.6754C65.5637 59.5599 64.8609 60.0723 64.7454 60.8218C64.6687 61.3187 64.8696 61.795 65.232 62.093ZM78.5935 63.6189C78.7844 63.7759 79.021 63.8845 79.2861 63.9188C81.4899 64.2079 83.6642 64.612 85.7463 65.1211C86.4827 65.3029 87.2273 64.8514 87.4073 64.1136C87.5891 63.3772 87.1362 62.6344 86.3998 62.4526C84.2193 61.9189 81.9455 61.4952 79.6415 61.1947C78.8904 61.0956 78.1991 61.6265 78.1018 62.3791C78.0405 62.8679 78.2399 63.3282 78.5935 63.6189ZM123.67 99.4892C124.048 99.8002 124.58 99.8996 125.064 99.6995C125.766 99.4115 126.103 98.6096 125.815 97.9076C124.946 95.7892 123.967 93.6978 122.906 91.6939C122.553 91.0243 121.72 90.769 121.049 91.1239C120.378 91.4788 120.124 92.31 120.479 92.9811C121.5 94.9075 122.44 96.9133 123.274 98.9505C123.36 99.1665 123.5 99.3496 123.67 99.4892ZM91.6241 66.8371C91.7372 66.9302 91.8666 67.007 92.0117 67.0611C94.0596 67.8353 96.0684 68.7434 97.9757 69.7606C98.6447 70.1181 99.4767 69.8629 99.8342 69.1939C100.19 68.5235 99.9348 67.6915 99.2676 67.3354C97.2559 66.265 95.143 65.307 92.9839 64.4916C92.2747 64.2225 91.4821 64.5811 91.2131 65.2903C90.9999 65.8558 91.1821 66.4737 91.6241 66.8371ZM117.368 87.6261C117.824 88.0012 118.489 88.0501 119.005 87.7039C119.634 87.2816 119.802 86.4278 119.38 85.7991C118.09 83.8762 116.697 82.0284 115.238 80.3073C114.749 79.7274 113.882 79.6575 113.304 80.148C112.726 80.6385 112.654 81.504 113.145 82.0822C114.537 83.7252 115.869 85.4895 117.102 87.327C117.178 87.4431 117.267 87.5433 117.368 87.6261ZM103.464 73.1471C103.488 73.1675 103.513 73.1878 103.539 73.2064C105.301 74.4622 107.007 75.8566 108.614 77.3438C109.164 77.8609 110.04 77.8258 110.555 77.2683C111.071 76.7123 111.037 75.8425 110.479 75.3277C108.787 73.7612 106.988 72.2944 105.132 70.9698C104.514 70.5293 103.658 70.6729 103.216 71.29C102.795 71.8806 102.91 72.6922 103.464 73.1471Z" fill="#202020"></path><path id="Vector_4" opacity="0.3" d="M17.6702 29.7772C18.0468 30.0868 18.5734 30.185 19.0568 29.9899C19.7609 29.7066 20.099 28.9061 19.8157 28.2021C19.4192 27.2213 19.0288 26.1862 18.6216 25.0455C18.3667 24.3322 17.5807 23.9584 16.8673 24.2134C16.154 24.4683 15.7803 25.2543 16.0353 25.9677C16.4559 27.1461 16.8591 28.2124 17.269 29.231C17.3589 29.4531 17.4988 29.6362 17.6702 29.7772Z" fill="#202020"></path></g></svg>