<svg xmlns="http://www.w3.org/2000/svg" width="44" height="44" viewBox="0 0 44 44" fill="none"><g id="rating 1" clip-path="url(#clip0_1_675)"><path id="Vector" d="M22.8594 34.8906C22.8594 35.3653 22.4747 35.75 22 35.75C21.5253 35.75 21.1406 35.3653 21.1406 34.8906C21.1406 34.416 21.5253 34.0312 22 34.0312C22.4747 34.0312 22.8594 34.416 22.8594 34.8906Z" fill="#FCB300"></path><path id="Vector_2" d="M41.1641 27.1562C41.1641 24.3129 38.8511 22 36.0078 22C33.1645 22 30.8516 24.3129 30.8516 27.1562C30.8516 29.9996 33.1645 32.3125 36.0078 32.3125C38.8511 32.3125 41.1641 29.9996 41.1641 27.1562ZM36.0078 30.5938C34.1125 30.5938 32.5703 29.0516 32.5703 27.1562C32.5703 25.2609 34.1125 23.7188 36.0078 23.7188C37.9031 23.7188 39.4453 25.2609 39.4453 27.1562C39.4453 29.0516 37.9031 30.5938 36.0078 30.5938Z" fill="#FCB300"></path><path id="Vector_3" d="M36.0078 32.3125C33.8423 32.3125 31.6827 33.2115 30.2117 34.6691C28.2755 32.1245 25.2898 30.5938 22 30.5938C18.8495 30.5938 15.7967 32.0312 13.7886 34.6691C12.3173 33.2118 10.1581 32.3125 7.99219 32.3125C3.66006 32.3125 0 35.8544 0 40.0469V41.7656C0 42.2403 0.384705 42.625 0.859375 42.625H43.1406C43.6153 42.625 44 42.2403 44 41.7656V40.0469C44 35.8544 40.3399 32.3125 36.0078 32.3125ZM1.71875 40.0469C1.71875 36.7859 4.59161 34.0312 7.99219 34.0312C9.85294 34.0312 11.6982 34.8557 12.8406 36.1663C12.0853 37.6252 11.6875 39.2513 11.6875 40.9062H1.71875V40.0469ZM22 32.3125C26.782 32.3125 30.5938 36.1924 30.5938 40.9062H13.4062C13.4062 36.1297 17.2959 32.3125 22 32.3125ZM42.2812 40.9062H32.3125C32.3125 39.2513 31.9147 37.6252 31.1594 36.1663C32.3018 34.8557 34.1471 34.0312 36.0078 34.0312C39.4084 34.0312 42.2812 36.7859 42.2812 40.0469V40.9062Z" fill="#FCB300"></path><path id="Vector_4" d="M13.1484 27.1562C13.1484 24.3129 10.8355 22 7.99219 22C5.14886 22 2.83594 24.3129 2.83594 27.1562C2.83594 29.9996 5.14886 32.3125 7.99219 32.3125C10.8355 32.3125 13.1484 29.9996 13.1484 27.1562ZM7.99219 30.5938C6.09686 30.5938 4.55469 29.0516 4.55469 27.1562C4.55469 25.2609 6.09686 23.7188 7.99219 23.7188C9.88751 23.7188 11.4297 25.2609 11.4297 27.1562C11.4297 29.0516 9.88751 30.5938 7.99219 30.5938Z" fill="#FCB300"></path><path id="Vector_5" d="M28.875 23.7188C28.875 19.9278 25.791 16.8438 22 16.8438C18.209 16.8438 15.125 19.9278 15.125 23.7188C15.125 27.5097 18.209 30.5938 22 30.5938C25.791 30.5938 28.875 27.5097 28.875 23.7188ZM22 28.875C19.1567 28.875 16.8438 26.5621 16.8438 23.7188C16.8438 20.8754 19.1567 18.5625 22 18.5625C24.8433 18.5625 27.1562 20.8754 27.1562 23.7188C27.1562 26.5621 24.8433 28.875 22 28.875Z" fill="#FCB300"></path><path id="Vector_6" d="M28.8009 6.37314C28.6998 6.06195 28.4309 5.83536 28.107 5.78836L24.4003 5.25024L22.7406 1.85706C22.5966 1.56198 22.2971 1.375 21.9688 1.375C21.6405 1.375 21.3411 1.56198 21.1967 1.85672L19.5374 5.25024L15.8307 5.78802C15.5067 5.83502 15.2378 6.06195 15.1368 6.37314C15.0358 6.68433 15.12 7.02573 15.3543 7.254L18.0385 9.87006L17.4051 13.5644C17.3497 13.8866 17.4823 14.2126 17.7471 14.4046C18.0103 14.5959 18.3608 14.6231 18.6522 14.4701L21.9688 12.7261L25.2868 14.4701C25.5762 14.6225 25.927 14.597 26.1918 14.4046C26.4564 14.2122 26.589 13.8866 26.5336 13.564L25.8995 9.87006L28.5833 7.254C28.8176 7.02573 28.9019 6.68433 28.8009 6.37314ZM24.3757 8.95462C24.1733 9.15201 24.0807 9.43668 24.1287 9.7153L24.5446 12.1387L22.3686 10.9946C22.1182 10.863 21.8191 10.863 21.5687 10.9946L19.3934 12.1387L19.809 9.7153C19.8566 9.43634 19.764 9.15201 19.5616 8.95462L17.8012 7.23889L20.2333 6.88574C20.5146 6.84512 20.7573 6.66788 20.8819 6.41275L21.9688 4.19046L23.0555 6.41275C23.1803 6.66821 23.423 6.84512 23.704 6.88574L26.1365 7.23889L24.3757 8.95462Z" fill="#FCB300"></path><path id="Vector_7" d="M41.6466 12.8141C41.5455 12.5029 41.2766 12.2763 40.9527 12.2293L38.4414 11.8644L37.3185 9.58841C37.1738 9.29501 36.8753 9.10938 36.548 9.10938C36.548 9.10938 36.548 9.10938 36.5477 9.10938C36.2207 9.10938 35.922 9.29501 35.7773 9.58841L34.6537 11.8644L32.1421 12.2293C31.8185 12.2763 31.5496 12.5029 31.4485 12.8141C31.3471 13.1253 31.4314 13.4667 31.6657 13.6949L33.4828 15.4671L33.0538 17.968C32.9988 18.2903 33.131 18.6159 33.3959 18.8082C33.6604 19.0006 34.0112 19.0261 34.3006 18.874L36.5477 17.6934L38.7942 18.874C39.0835 19.0261 39.4347 19.0006 39.6992 18.8082C39.9637 18.6162 40.096 18.2903 40.0409 17.968L39.6119 15.4671L41.4294 13.6949C41.6637 13.4667 41.7476 13.1253 41.6466 12.8141ZM38.0889 14.552C37.8861 14.7494 37.7938 15.0337 37.8418 15.3123L38.0526 16.5423L36.9479 15.9619C36.6974 15.8303 36.3983 15.8303 36.1482 15.9619L35.0425 16.5426L35.2536 15.3123C35.3013 15.0337 35.209 14.7494 35.0065 14.552L34.1123 13.6798L35.3479 13.5006C35.6279 13.46 35.8699 13.2841 35.9952 13.0306L36.5477 11.9111L37.0999 13.0303C37.2251 13.2841 37.4672 13.46 37.7471 13.5006L38.9828 13.6798L38.0889 14.552Z" fill="#FCB300"></path><path id="Vector_8" d="M12.4278 12.8141C12.3268 12.5029 12.0579 12.2763 11.7339 12.2293L9.22261 11.8644L8.09971 9.58841C7.95503 9.29501 7.6566 9.10938 7.3293 9.10938C7.00199 9.10938 6.70323 9.29501 6.55854 9.58841L5.43498 11.8644L2.92332 12.2293C2.59971 12.2763 2.33082 12.5029 2.22978 12.8141C2.1284 13.1253 2.21266 13.4667 2.44697 13.6949L4.26408 15.4671L3.8354 17.968C3.78001 18.2903 3.91261 18.6159 4.17713 18.8082C4.44166 19.0006 4.79246 19.0261 5.08216 18.874L7.32896 17.6934L9.57542 18.874C9.8668 19.0271 10.2173 18.9996 10.4804 18.8082C10.745 18.6162 10.8776 18.2903 10.8222 17.968L10.3932 15.4671L12.2106 13.6949C12.4449 13.4667 12.5288 13.1253 12.4278 12.8141ZM8.86979 14.552C8.66737 14.7494 8.57505 15.0337 8.62272 15.3123L8.83387 16.5423L7.72877 15.9619C7.47868 15.8303 7.17958 15.8303 6.92948 15.9619L5.82338 16.5426L6.03453 15.3123C6.08253 15.0337 5.98988 14.7494 5.78746 14.552L4.89317 13.6798L6.12919 13.5006C6.40882 13.46 6.65086 13.2841 6.77607 13.0306L7.32862 11.9111L7.88084 13.0303C8.00605 13.2841 8.24809 13.46 8.52806 13.5006L9.76374 13.6798L8.86979 14.552Z" fill="#FCB300"></path><path id="Vector_9" d="M25.766 35.157C25.3692 34.8961 24.8364 35.0066 24.5759 35.4034C24.3151 35.7998 24.4255 36.3326 24.8223 36.5934C25.6169 37.1154 26.252 37.8432 26.6589 38.6979C26.8623 39.1259 27.3746 39.3088 27.804 39.1044C28.2326 38.9006 28.4146 38.3877 28.2108 37.9593C27.669 36.8207 26.8234 35.8515 25.766 35.157Z" fill="#FCB300"></path></g><defs><clipPath id="clip0_1_675"><rect width="44" height="44" fill="white"></rect></clipPath></defs></svg>