<svg xmlns="http://www.w3.org/2000/svg" width="32" height="32" viewBox="0 0 32 32" fill="none"><g id="tractor 1" clip-path="url(#clip0_1_1108)"><g id="Group"><path id="Vector" d="M31.0136 28.9915H29.8221C31.1381 28.0623 32 26.5308 32 24.8009C32 23.9969 31.8136 23.2358 31.4823 22.5578V19.3105C31.4823 18.4076 31.2201 17.5316 30.724 16.7773L29.872 15.4817C29.4529 14.8446 28.7777 14.4328 28.0194 14.3519L25.7874 14.1138V8.23426C25.7874 7.85989 25.5778 7.53364 25.2698 7.36651V3.81814C25.2698 3.60251 25.3895 3.40845 25.5822 3.3117L26.6119 2.79482C26.8475 2.67701 27.0232 2.47445 27.1065 2.22445C27.1898 1.97445 27.1708 1.70701 27.053 1.47139L26.59 0.545262C26.3468 0.0587616 25.7529 -0.139113 25.2661 0.104324L23.6632 0.907574C22.7986 1.34089 22.2614 2.21089 22.2614 3.17801V7.36651C21.9534 7.53357 21.7437 7.85989 21.7437 8.23426V13.6825L20.0391 13.5007L19.0623 7.63951C19.0599 7.62714 19.0567 7.61526 19.0546 7.60289L18.9291 7.10064C18.6459 5.96801 17.6327 5.17701 16.4653 5.17701H5.25037C4.67694 5.17701 4.16144 5.49564 3.905 6.00851L3.53044 6.7577C3.37637 7.06576 3.39256 7.42451 3.57356 7.71745C3.75456 8.01045 4.06831 8.18532 4.41269 8.18532H4.45969L4.35444 9.02714C4.32231 9.28401 4.50456 9.51826 4.76144 9.55039C4.78119 9.55289 4.80081 9.55407 4.82019 9.55407C5.05312 9.55407 5.25506 9.38057 5.28475 9.14339L5.4045 8.18526H6.54656L5.88713 13.4603H4.74512L5.01131 11.3309C5.04344 11.074 4.86119 10.8398 4.60431 10.8076C4.34725 10.7755 4.11312 10.9577 4.081 11.2146L3.7965 13.4908C3.43806 13.5635 3.11181 13.7654 2.88944 14.0619L1.85394 15.4425C1.65994 15.7012 1.55313 16.0217 1.55313 16.345V18.2688C0.581125 19.4961 0 21.0464 0 22.7301C0 25.4099 1.47213 27.7523 3.65 28.9916H0.986437C0.4425 28.9915 0 29.434 0 29.978V31.0134C0 31.5574 0.4425 31.9999 0.986437 31.9999H3.97606C4.235 31.9999 4.44481 31.79 4.44481 31.5311C4.44481 31.2723 4.235 31.0624 3.97606 31.0624H0.986437C0.959437 31.0624 0.9375 31.0404 0.9375 31.0134V29.978C0.9375 29.951 0.9595 29.9291 0.986437 29.9291H31.0136C31.0406 29.9291 31.0625 29.951 31.0625 29.978V31.0134C31.0625 31.0404 31.0405 31.0624 31.0136 31.0624H6.16356C5.90462 31.0624 5.69481 31.2723 5.69481 31.5311C5.69481 31.79 5.90462 31.9999 6.16356 31.9999H31.0136C31.5575 31.9999 32 31.5573 32 31.0134V29.978C32 29.434 31.5575 28.9915 31.0136 28.9915ZM2.95425 25.9461C2.70881 25.8643 2.44319 25.997 2.36138 26.2426L2.25362 26.5659C1.484 25.5759 1.00469 24.3499 0.944375 23.0164L1.71388 22.6316C1.94538 22.5159 2.03925 22.2343 1.9235 22.0028C1.80775 21.7712 1.52638 21.6773 1.29463 21.7931L0.9865 21.9472C1.15125 20.6323 1.72537 19.4428 2.57681 18.5108L3.39006 18.7819C3.43925 18.7983 3.48925 18.8061 3.53837 18.8061C3.73462 18.8061 3.9175 18.6819 3.983 18.4855C4.06488 18.2399 3.93219 17.9744 3.68656 17.8926L3.36319 17.7848C4.35319 17.0151 5.57925 16.5358 6.91275 16.4755L7.2975 17.245C7.37963 17.4093 7.54519 17.5042 7.71712 17.5042C7.78756 17.5042 7.85906 17.4883 7.92644 17.4546C8.15794 17.3389 8.25181 17.0573 8.13606 16.8258L7.98194 16.5176C9.29694 16.6823 10.4864 17.2565 11.4184 18.1079L11.1473 18.9212C11.0654 19.1668 11.1981 19.4323 11.4437 19.5141C11.4929 19.5305 11.5429 19.5383 11.592 19.5383C11.7882 19.5383 11.9711 19.4141 12.0366 19.2177L12.1444 18.8943C12.9141 19.8843 13.3934 21.1104 13.4537 22.4439L12.6841 22.8286C12.4526 22.9444 12.3587 23.226 12.4745 23.4575C12.5566 23.6218 12.7222 23.7167 12.8941 23.7167C12.9646 23.7167 13.0361 23.7008 13.1034 23.6671L13.4116 23.5129C13.2469 24.8279 12.6727 26.0174 11.8212 26.9494L11.0079 26.6783C10.7621 26.5964 10.4968 26.7292 10.415 26.9748C10.3331 27.2204 10.4659 27.4859 10.7114 27.5678L11.0349 27.6756C10.0449 28.4452 8.81881 28.9245 7.48531 28.9848L7.10056 28.2153C6.98481 27.9838 6.70337 27.8899 6.47169 28.0057C6.24019 28.1214 6.14631 28.403 6.26206 28.6346L6.41619 28.9428C5.10119 28.778 3.91175 28.2039 2.97975 27.3524L3.25081 26.5391C3.33256 26.2934 3.19981 26.0279 2.95425 25.9461ZM14.1085 24.7519H21.745C21.7448 24.7683 21.7437 24.7845 21.7437 24.8009C21.7437 26.5309 22.6056 28.0623 23.9216 28.9916H10.7479C12.3556 28.0768 13.5782 26.5609 14.1085 24.7519ZM30.0266 27.5548L29.2166 27.2848C28.9708 27.2029 28.7054 27.3357 28.6236 27.5813C28.5417 27.8269 28.6744 28.0924 28.9201 28.1743L29.2161 28.2729C28.6204 28.6764 27.9156 28.9297 27.1562 28.9809L26.7734 28.2153C26.6577 27.9838 26.3763 27.8899 26.1446 28.0057C25.9131 28.1214 25.8192 28.403 25.935 28.6346L26.0751 28.9147C25.3352 28.7716 24.6645 28.4333 24.1181 27.9557L24.3881 27.1457C24.4699 26.9001 24.3372 26.6346 24.0916 26.5528C23.8459 26.4709 23.5806 26.6036 23.4987 26.8492L23.4 27.1452C22.9965 26.5495 22.7432 25.8447 22.6921 25.0853L23.4576 24.7025C23.6891 24.5868 23.783 24.3052 23.6672 24.0736C23.5515 23.8421 23.2701 23.7483 23.0384 23.8641L22.7583 24.0041C22.9014 23.2643 23.2397 22.5936 23.7173 22.0472L24.5273 22.3172C24.5764 22.3336 24.6264 22.3414 24.6756 22.3414C24.8718 22.3414 25.0547 22.2171 25.1202 22.0208C25.2021 21.7751 25.0693 21.5097 24.8237 21.4278L24.5278 21.3292C25.1234 20.9257 25.8283 20.6724 26.5876 20.6213L26.9704 21.3868C27.0525 21.5511 27.2181 21.646 27.39 21.646C27.4604 21.646 27.5319 21.6301 27.5993 21.5964C27.8308 21.4807 27.9247 21.1991 27.8089 20.9676L27.6689 20.6874C28.4088 20.8305 29.0794 21.1688 29.6259 21.6464L29.3559 22.4564C29.274 22.7021 29.4067 22.9675 29.6523 23.0494C29.7015 23.0658 29.7515 23.0736 29.8006 23.0736C29.9969 23.0736 30.1798 22.9493 30.2453 22.7529L30.3439 22.4569C30.7474 23.0526 31.0007 23.7575 31.0519 24.5168L30.2863 24.8996C30.0548 25.0154 29.9609 25.2969 30.0767 25.5285C30.1588 25.6928 30.3244 25.7877 30.4963 25.7877C30.5668 25.7877 30.6383 25.7718 30.7056 25.7381L30.9857 25.5981C30.8425 26.3377 30.5042 27.0084 30.0266 27.5548ZM29.0887 15.9968L29.9407 17.2923C30.3359 17.8933 30.5448 18.5912 30.5448 19.3104V21.2273C29.6126 20.2694 28.3109 19.6727 26.8719 19.6727C24.3817 19.6727 22.3013 21.4572 21.8399 23.8144H16.4688V22.73C16.4688 21.6226 16.2733 20.5601 15.9155 19.5748H17.0467C17.5907 19.5748 18.0332 19.1323 18.0332 18.5883V14.3977H19.6104L27.9199 15.284C28.3984 15.3351 28.8244 15.5949 29.0887 15.9968ZM11.3896 8.18526V14.463C11.025 14.2774 10.6464 14.1156 10.2562 13.9789V8.18526H11.3896ZM12.3271 8.18526H16.1319L17.0957 13.9678V18.5883C17.0957 18.6153 17.0737 18.6373 17.0467 18.6373H15.5147C14.7881 17.1669 13.683 15.9157 12.3271 15.0118L12.3271 8.18526ZM18.2027 8.18526L19.0819 13.4603H17.9615L17.0823 8.18526H18.2027ZM22.6812 8.23426C22.6812 8.20726 22.7033 8.18532 22.7302 8.18532H24.801C24.828 8.18532 24.8499 8.20732 24.8499 8.23426V9.31864H22.6812V8.23426ZM23.199 3.17801C23.199 2.56789 23.5378 2.01914 24.0833 1.7457L25.6858 0.942574C25.7101 0.930449 25.7393 0.940387 25.7515 0.964449L26.2145 1.89064C26.2266 1.91482 26.2167 1.94426 26.192 1.9567L25.1618 2.47382C24.6501 2.73057 24.3323 3.2457 24.3323 3.81814V7.24776H23.199V3.17801ZM22.6812 10.2561H24.85V14.0138L22.6812 13.7825V10.2561ZM4.37106 7.22457C4.35675 7.20132 4.36556 7.18364 4.36894 7.17695L4.7435 6.42776C4.84013 6.23451 5.03431 6.11451 5.25037 6.11451H16.4653C17.1739 6.11451 17.7924 6.57651 17.9973 7.24782H4.41269C4.40519 7.24776 4.38537 7.24776 4.37106 7.22457ZM7.49137 8.18526H9.31875V13.7051C8.63775 13.5451 7.92812 13.4602 7.199 13.4602H6.832L7.49137 8.18526ZM2.60394 16.005L3.63937 14.6244C3.74581 14.4824 3.91525 14.3978 4.09269 14.3978H7.19894C11.7934 14.3978 15.5312 18.1356 15.5312 22.73V23.8144H14.3162C14.3699 23.4606 14.3979 23.0985 14.3979 22.73C14.3979 18.7605 11.1684 15.5311 7.19887 15.5311C5.40031 15.5311 3.75362 16.1941 2.4905 17.2885V16.345C2.49062 16.2232 2.53087 16.1024 2.60394 16.005Z" fill="#00BD39"></path><path id="Vector_2" d="M7.19906 26.3351C9.18687 26.3351 10.8041 24.7178 10.8041 22.73C10.8041 20.7422 9.18687 19.125 7.19906 19.125C5.21118 19.125 3.59399 20.7422 3.59399 22.73C3.59399 24.7178 5.21118 26.3351 7.19906 26.3351ZM7.19906 20.0626C8.66987 20.0626 9.86656 21.2592 9.86656 22.7301C9.86656 24.2009 8.66993 25.3976 7.19906 25.3976C5.72818 25.3976 4.53149 24.2009 4.53149 22.7301C4.53149 21.2592 5.72812 20.0626 7.19906 20.0626Z" fill="#00BD39"></path><path id="Vector_3" d="M7.19895 24.2343C8.02839 24.2343 8.70307 23.5595 8.70307 22.7301C8.70307 21.9007 8.02832 21.226 7.19895 21.226C6.36957 21.226 5.69482 21.9007 5.69482 22.7301C5.69476 23.5595 6.36951 24.2343 7.19895 24.2343ZM7.19895 22.1634C7.51139 22.1634 7.76557 22.4176 7.76557 22.73C7.76557 23.0425 7.51139 23.2967 7.19895 23.2967C6.88651 23.2967 6.63232 23.0425 6.63232 22.73C6.63226 22.4176 6.88651 22.1634 7.19895 22.1634Z" fill="#00BD39"></path><path id="Vector_4" d="M26.8719 22.779C25.757 22.779 24.85 23.686 24.85 24.8009C24.85 25.9157 25.757 26.8228 26.8719 26.8228C27.9868 26.8228 28.8938 25.9158 28.8938 24.8009C28.8938 23.6861 27.9868 22.779 26.8719 22.779ZM26.8719 25.8853C26.274 25.8853 25.7875 25.3988 25.7875 24.8009C25.7875 24.203 26.2739 23.7165 26.8719 23.7165C27.4698 23.7165 27.9563 24.203 27.9563 24.8009C27.9563 25.3988 27.4699 25.8853 26.8719 25.8853Z" fill="#00BD39"></path><path id="Vector_5" d="M21.2755 17.245L21.7932 18.2803C21.8753 18.4446 22.0409 18.5396 22.2128 18.5396C22.2833 18.5396 22.3548 18.5236 22.4221 18.49C22.6536 18.3742 22.7475 18.0926 22.6317 17.8611L22.114 16.8257C21.9983 16.5941 21.7169 16.5003 21.4851 16.6161C21.2536 16.7318 21.1598 17.0134 21.2755 17.245Z" fill="#00BD39"></path><path id="Vector_6" d="M24.3818 18.2803C24.4639 18.4446 24.6295 18.5396 24.8014 18.5396C24.8718 18.5396 24.9434 18.5236 25.0107 18.49C25.2422 18.3742 25.3361 18.0926 25.2203 17.8611L24.7026 16.8257C24.587 16.5941 24.3055 16.5003 24.0738 16.6161C23.8423 16.7318 23.7484 17.0134 23.8641 17.245L24.3818 18.2803Z" fill="#00BD39"></path></g></g><defs><clipPath id="clip0_1_1108"><rect width="32" height="32" fill="white"></rect></clipPath></defs></svg>