<svg xmlns="http://www.w3.org/2000/svg" width="32" height="32" viewBox="0 0 32 32" fill="none"><g id="07-healthy"><path id="Vector" d="M25.6372 9.93126C26.1211 9.93022 26.5963 9.80236 27.0154 9.56043C27.4345 9.31849 27.7829 8.97094 28.0258 8.5524C28.0744 8.46841 28.1 8.37309 28.1 8.27605C28.1 8.17901 28.0744 8.08369 28.0258 7.9997C27.7837 7.58046 27.4355 7.23233 27.0162 6.99029C26.597 6.74825 26.1214 6.62083 25.6373 6.62083C25.1531 6.62083 24.6776 6.74825 24.2583 6.99029C23.839 7.23233 23.4908 7.58046 23.2488 7.9997C23.2002 8.08369 23.1746 8.17901 23.1746 8.27605C23.1746 8.37309 23.2002 8.46841 23.2488 8.5524C23.4916 8.97093 23.84 9.31848 24.2591 9.56041C24.6782 9.80234 25.1533 9.93021 25.6372 9.93126ZM25.6372 7.72431C25.8699 7.72484 26.0998 7.77422 26.3122 7.86927C26.5245 7.96431 26.7145 8.1029 26.8699 8.27605C26.7149 8.44962 26.5249 8.58849 26.3125 8.68357C26.1001 8.77865 25.87 8.8278 25.6373 8.8278C25.4045 8.8278 25.1744 8.77865 24.962 8.68357C24.7496 8.58849 24.5596 8.44962 24.4046 8.27605C24.56 8.1029 24.75 7.96432 24.9623 7.86927C25.1746 7.77423 25.4046 7.72484 25.6372 7.72431Z" fill="#00BD39"></path><path id="Vector_2" d="M29.2199 27.778C28.8575 27.4807 28.4294 27.1635 27.9441 26.8319C30.3415 25.4029 32.0017 22.4026 32.0017 19.3107C32.0017 16.5082 30.8974 13.1496 28.4303 11.9638C27.41 11.4735 25.8403 11.219 23.7789 12.3487C23.6803 11.3635 23.3809 10.5398 23.0991 9.76648C22.5666 8.30548 22.1461 7.15153 23.1156 5.21238L22.1287 4.71886C20.9466 7.08304 21.5138 8.63928 22.0623 10.1443C22.3813 11.0195 22.7064 11.9125 22.7037 13.0374C22.6762 13.0573 22.6495 13.0761 22.622 13.0965C21.1076 11.97 19.8146 11.5738 18.7599 11.5495V8.27603C18.7592 8.15676 18.7206 8.04079 18.6495 7.94499L15.4496 3.67828V0.551736C15.4496 0.405406 15.3915 0.26507 15.288 0.1616C15.1845 0.0581291 15.0442 0 14.8979 0H4.96661C4.82028 0 4.67995 0.0581291 4.57648 0.1616C4.47301 0.26507 4.41488 0.405406 4.41488 0.551736V3.67828L1.21481 7.94499C1.14375 8.04079 1.10509 8.15676 1.10446 8.27603V20.2174C0.610284 20.5169 0.25079 20.9957 0.100926 21.5538C-0.132113 22.3578 -0.0747329 23.5262 1.5222 24.5286C1.89306 24.7562 2.28305 24.951 2.68774 25.1109C1.05233 26.0001 0.856528 27.0903 0.86239 27.5847C0.874459 28.5951 1.66386 29.4744 2.87347 29.8252C3.05326 29.8765 3.23941 29.902 3.42637 29.901C4.42053 29.901 5.64787 29.2285 7.085 27.8941C7.51708 27.4929 7.91261 27.0845 8.2431 26.7237C8.30142 27.2139 8.47599 27.6831 8.75228 28.0922C9.42222 29.0843 10.7005 29.7953 13.0265 30.4695C15.2621 31.1174 19.4869 31.7316 23.0722 31.9302C23.9072 31.9765 24.6921 31.9992 25.4141 31.9992C26.2896 32.0066 27.1647 31.9617 28.0348 31.8647C29.7291 31.6556 30.6193 31.2095 30.8362 30.4611C31.0531 29.7128 30.5396 28.8607 29.2199 27.778ZM22.5601 14.34C22.4822 14.7017 22.3805 15.058 22.2557 15.4064C22.0334 15.3557 21.8238 15.2597 21.6401 15.1245C21.4564 14.9893 21.3024 14.8178 21.1878 14.6206L20.2327 15.1731C20.4749 15.5924 20.8232 15.9406 21.2426 16.1826C21.662 16.4247 22.1377 16.5521 22.6219 16.5521C23.1062 16.5521 23.5819 16.4247 24.0013 16.1826C24.4207 15.9406 24.769 15.5924 25.0112 15.1731L24.056 14.6206C23.9162 14.8612 23.7181 15.0628 23.4798 15.2068C23.6327 14.6929 23.7347 14.1652 23.7846 13.6313C25.3389 12.6229 26.7666 12.3883 27.9521 12.9581C29.6868 13.792 30.8982 16.4042 30.8982 19.3107C30.8982 22.1896 29.1918 25.0698 26.889 26.1445C26.3291 25.7952 25.7171 25.4349 25.0614 25.0687C21.9256 23.3192 18.0267 21.5789 15.7915 20.9311C15.3099 20.7915 14.8659 20.6777 14.4541 20.5886C14.383 20.1663 14.3469 19.7389 14.3461 19.3107C14.3461 16.4042 15.5575 13.792 17.292 12.9584C18.6828 12.2899 20.4067 12.7276 22.2775 14.2242C22.3588 14.2888 22.4568 14.3289 22.5601 14.34ZM2.20794 8.82777H11.0357V12.1382H2.20794V8.82777ZM12.1392 8.82777H17.6565V11.6647C17.3659 11.7342 17.0834 11.8345 16.814 11.9638C14.3469 13.1496 13.2426 16.5082 13.2426 19.3107C13.2431 19.6737 13.266 20.0362 13.3112 20.3964C12.9224 20.3494 12.53 20.3386 12.1392 20.3639V8.82777ZM12.6909 7.7243L14.8979 4.78168L17.1048 7.7243H12.6909ZM5.51835 1.10347H14.3461V3.31041H5.51835V1.10347ZM5.24248 4.41388H13.7944L11.3116 7.7243H2.75967L5.24248 4.41388ZM2.20794 13.2417H11.0357V20.6023C10.9927 20.619 10.95 20.6362 10.9082 20.6546C10.4561 20.8519 10.0577 21.1544 9.74602 21.5368C9.65947 21.0554 9.54409 20.4997 9.39367 19.9304C8.79538 17.6661 7.94536 16.3595 6.8672 16.0471C5.65752 15.6965 4.52012 16.0174 3.96976 16.8649C3.70079 17.2793 3.28279 18.3055 4.18936 19.9313C3.76178 19.8501 3.32795 19.8063 2.89278 19.8003H2.87209C2.65002 19.7995 2.42818 19.8146 2.20828 19.8456L2.20794 13.2417ZM3.18037 28.7653C2.44849 28.5532 1.97165 28.0846 1.96552 27.5715C1.95862 26.9869 2.60001 26.1572 4.42171 25.5819C4.53461 25.5462 4.63304 25.4752 4.70245 25.3792C4.77186 25.2833 4.80856 25.1676 4.80714 25.0492C4.80572 24.9308 4.76624 24.816 4.69455 24.7218C4.62285 24.6275 4.52274 24.5588 4.40902 24.5259C1.91303 23.8024 0.850321 22.9307 1.16067 21.861C1.34523 21.2242 1.90324 20.9068 2.85133 20.9068C3.49582 20.9068 4.32074 21.0535 5.33097 21.3463C5.4447 21.3793 5.56603 21.3748 5.67701 21.3335C5.78799 21.2922 5.88274 21.2162 5.94724 21.1169C6.01175 21.0176 6.0426 20.9002 6.03522 20.782C6.02785 20.6638 5.98264 20.5511 5.90629 20.4606C4.67475 19.0004 4.57626 17.9563 4.89482 17.466C5.17434 17.0357 5.82787 16.8948 6.55975 17.1069C7.75419 17.4531 8.61324 20.756 8.85704 23.0545L8.30241 24.968C6.86734 26.7799 4.37515 29.1114 3.18071 28.7653H3.18037ZM29.7768 30.1548C29.6997 30.4209 28.3137 31.1158 23.1333 30.8291C22.2639 30.7808 21.3571 30.7081 20.452 30.6163L20.9907 28.7573L19.9309 28.4501L19.3386 30.4937C16.98 30.2138 14.7429 29.8186 13.3338 29.4102C11.3042 28.822 10.1732 28.2252 9.66678 27.4753C9.2047 26.791 9.19656 25.8469 9.63919 24.3184C10.0818 22.79 10.594 21.9965 11.3503 21.6654C11.6717 21.5247 12.0599 21.4537 12.5333 21.4537C13.281 21.4537 14.2409 21.6311 15.4837 21.9912C15.6498 22.0395 15.8265 22.0947 16.0108 22.1548L14.6314 26.9142L15.6912 27.2214L17.053 22.5228C19.2232 23.3379 22.0999 24.6805 24.5232 26.0326C25.1125 26.3614 25.6381 26.6697 26.1075 26.9581L25.5374 28.9261L26.5972 29.2334L27.077 27.5782C29.3733 29.1114 29.8361 29.9495 29.7768 30.1548Z" fill="#00BD39"></path></g></svg>