<svg xmlns="http://www.w3.org/2000/svg" width="32" height="32" viewBox="0 0 32 32" fill="none"><g id="delivery-man 1"><g id="Group"><path id="Vector" d="M31 11.5H26H22H17C16.7 11.5 16.5 11.7 16.5 12V15.35L15.25 15.05L13.9 13.7C15.4 12.3 15.5 9.35 15.5 8.5C17.35 8.5 18.65 8 19.15 7.1C19.35 6.7 19.5 6.05 18.95 5.2C18.4 4.4 17.7 4 16.75 4C16.7 4 14.95 4 14.95 4C14.8 3.1 14.2 1.2 11.85 0.65C11.35 0.55 10.65 0.5 10.5 0.5C5.3 0.5 4.5 3 4.5 4.5V7C4.5 7.35 4.65 7.75 4.95 8.05C4.7 8.35 4.5 8.85 4.5 9.5C4.5 10.75 5.35 11.3 6.1 11.45C6.35 12.2 6.7 12.75 7.05 13.2L5.2 15.05C4.8 15.5 5.3 15.95 5.3 15.95L3.15 18.1C2.95 18.35 1 20.35 1 22C1 22.1 1 22.15 1.05 22.2L3.55 27.2C3.6 27.35 3.75 27.4 3.85 27.45C3.9 27.45 4.35 27.6 5 27.6C5 27.65 4.95 30.45 4.95 30.45C4.95 30.75 5.15 30.95 5.45 30.95C5.75 30.95 5.95 30.75 5.95 30.45V29.05C6.7 29.95 7.9 30.95 9.45 30.95C11 30.95 13.85 29.95 16.35 29.05C16.8 28.9 17.2 28.75 17.6 28.6C17.7 28.55 17.8 28.55 17.95 28.5V30.5C17.95 30.8 18.15 31 18.45 31C18.75 31 18.95 30.8 18.95 30.5V28.25C19.85 28.05 20.7 27.95 21.45 28H24.95C25.8 28 26.95 27.7 27.3 26.8C27.4 26.55 27.45 26.3 27.45 26H30.95C31.25 26 31.45 25.8 31.45 25.5V12C31.5 11.7 31.3 11.5 31 11.5ZM25.5 12.5V15.2L24.2 14.55C24.15 14.5 24.1 14.5 24 14.5C23.9 14.5 23.85 14.5 23.8 14.55L22.5 15.2V12.5H25.5ZM10.9 15.25C10.85 15.15 10.6 15 10.6 15C11.2 15 11.7 14.9 12.2 14.75L12 15.35L11.5 16.65C11.5 16.65 10.95 15.25 10.9 15.25ZM13.35 14.55L14.4 15.6L13.9 16.55L13.05 15.4L13.35 14.55ZM14.25 5C13.8 5.35 13.4 5.8 13.1 6.2C12.25 7.45 11.5 7.5 11.5 7.5H8.85C9.05 7.3 9.25 7.05 9.4 6.8C10 5.9 11.1 5 12 5H14.25ZM18.1 5.8C18.35 6.15 18.4 6.45 18.25 6.65C18.05 7.05 17.2 7.5 15.5 7.5H15.45C15.35 6.6 15.2 5.95 15.1 5.6C15.65 5.25 16.2 5 16.75 5C17.3 5 17.75 5.25 18.1 5.8ZM5.5 4.5C5.5 2.7 6.95 1.95 8.6 1.65C7.75 2.55 7.5 3.7 7.5 4.5C7.5 4.8 7.7 5 8 5C8.25 5 8.5 4.8 8.5 4.5C8.5 4.2 8.6 1.8 11.05 1.55C13.2 1.75 13.8 3.25 13.95 4H12C10.65 4 9.3 5.1 8.6 6.2C7.75 7.45 7 7.5 7 7.5H6C5.6 7.5 5.5 7.25 5.5 7V4.5ZM6.5 10.5C6.35 10.5 5.5 10.45 5.5 9.5C5.5 8.6 5.9 8.5 6 8.5H11.5C11.65 8.5 12.8 8.45 13.9 6.8C14 6.65 14.1 6.5 14.25 6.35C14.35 6.8 14.5 7.55 14.5 8.55C14.5 8.6 14.7 11.35 13.25 12.95C12.6 13.65 11.65 14 10.5 14C10.45 14 7.85 13.95 7 10.85C6.9 10.65 6.7 10.5 6.5 10.5ZM7.55 14.15L9.75 15.6L8.4 17.3L6.2 15.5L7.55 14.15ZM2 21.9C2.1 20.85 3.35 19.35 3.85 18.85L6.05 16.65L8.15 18.4C8.25 18.5 8.35 18.5 8.45 18.5H8.5C8.65 18.5 8.75 18.4 8.85 18.3L10.3 16.45L11 18.15C11.1 18.35 11.25 18.45 11.45 18.45C11.65 18.45 11.85 18.35 11.9 18.15L12.55 16.5L13.5 17.8C13.6 17.95 13.75 18 13.95 18C14.1 18 14.25 17.9 14.35 17.75L15.15 16.1L16.4 16.4V24.35C15.65 24.6 14.75 24.9 13.8 25.2C13.05 25.45 12.3 25.7 11.6 25.95C10.75 26.25 9.75 25.9 9.3 25.1L7.35 21.75C7.2 21.5 6.9 21.45 6.65 21.6C6.4 21.75 6.35 22.05 6.5 22.3L7.9 24.6C7.1 26.95 4.95 26.75 4.3 26.6L2 21.9ZM26.4 26.4C26.25 26.8 25.55 27 25 27H21.55C19.9 26.9 18.2 27.4 17.35 27.7C16.95 27.85 16.5 28 16.1 28.15C13.75 28.95 10.9 30 9.5 30C7.75 30 6.5 28.2 6.1 27.55C6.95 27.35 7.9 26.9 8.6 25.7C9.15 26.55 10.1 27.05 11.1 27.05C11.4 27.05 11.7 27 12 26.9C12.65 26.7 13.4 26.45 14.2 26.15C16.4 25.4 19.1 24.5 19.8 24.5H23.3C23.45 24.5 23.75 24.6 23.8 25H22.5C22.2 25 22 25.2 22 25.5C22 25.8 22.2 26 22.5 26C22.5 26 26.3 26.05 26.5 26.05C26.5 26.15 26.45 26.3 26.4 26.4ZM30.5 25H24.8C24.75 23.9 23.9 23.5 23.3 23.5H19.8C19.35 23.5 18.6 23.7 17.5 24V12.5H21.5V16C21.5 16.15 21.6 16.35 21.75 16.45C21.9 16.55 22.1 16.55 22.25 16.45L24.05 15.55L25.85 16.45C25.85 16.5 25.9 16.5 26 16.5C26.1 16.5 26.2 16.5 26.25 16.45C26.4 16.35 26.5 16.2 26.5 16V12.5H30.5V25Z" fill="#00BD39"></path><path id="Vector_2" d="M21.5 21.5H19.5C19.2 21.5 19 21.7 19 22C19 22.3 19.2 22.5 19.5 22.5H21.5C21.8 22.5 22 22.3 22 22C22 21.7 21.8 21.5 21.5 21.5Z" fill="#00BD39"></path><path id="Vector_3" d="M19.5 21H20.5C20.8 21 21 20.8 21 20.5C21 20.2 20.8 20 20.5 20H19.5C19.2 20 19 20.2 19 20.5C19 20.8 19.2 21 19.5 21Z" fill="#00BD39"></path></g></g></svg>