<svg xmlns="http://www.w3.org/2000/svg" width="44" height="44" viewBox="0 0 44 44" fill="none"><g id="new-product 1" clip-path="url(#clip0_1_685)"><path id="Vector" fill-rule="evenodd" clip-rule="evenodd" d="M11.5662 38.5734L12.1594 39.6217C12.1598 39.6222 12.1601 39.6228 12.1604 39.6233C12.6346 40.4668 12.334 41.5431 11.4953 42.0168L9.46207 43.1691C9.46138 43.1696 9.46069 43.17 9.46 43.1703C8.61649 43.6445 7.54022 43.3439 7.0664 42.5048L1.08723 31.9399C0.608753 31.0957 0.909506 30.0185 1.74913 29.5442L3.78478 28.3918L3.78538 28.3914C4.62466 27.9174 5.70128 28.2154 6.17924 29.0547L6.1801 29.0563L6.66505 29.9132L12.0161 26.8151C13.6092 25.8939 15.2364 25.2906 16.9861 25.8588C18.6988 26.4141 21.495 27.611 24.3486 28.1267C24.3791 28.1322 24.4091 28.1397 24.4386 28.1493C25.8624 28.6103 26.7289 30.0495 26.34 31.4953C26.2733 31.7438 26.1824 31.9727 26.0688 32.1798C26.4062 32.091 26.7358 31.9545 27.0593 31.766L34.3092 27.5435C36.9129 26.0267 38.6479 26.1852 39.6305 26.8444C40.4717 27.4089 40.8609 28.3728 40.8357 29.3188C40.8103 30.2742 40.3562 31.1874 39.607 31.6488L26.4516 39.7484C25.0751 40.598 23.5673 40.7973 22.0053 40.3806L22.0046 40.3803L12.7379 37.8968L11.5662 38.5734ZM7.34498 31.1146L10.8863 37.372L12.2952 36.5584C12.4537 36.4669 12.6421 36.4421 12.819 36.4895L22.3613 39.0469C23.5433 39.3621 24.685 39.2166 25.7266 38.5737L25.7272 38.5734L38.8831 30.4734C39.2314 30.2589 39.4137 29.8283 39.4501 29.3869C39.5062 28.7069 39.1864 27.9568 38.3455 27.7806C37.5728 27.6188 36.4847 27.8738 35.0041 28.7364L27.7543 32.9586C26.5981 33.6324 25.3862 33.8185 24.0654 33.6083C24.0646 33.6082 24.0639 33.608 24.0631 33.6079L23.1642 33.4617C23.1639 33.4616 23.1637 33.4616 23.1633 33.4615C23.154 33.46 23.1447 33.4582 23.1355 33.4564C23.1351 33.4564 23.1349 33.4563 23.1345 33.4562C21.4989 33.1205 19.982 32.6263 18.2989 32.174C17.931 32.0751 17.7126 31.6962 17.8115 31.3283C17.9103 30.9604 18.2892 30.742 18.6571 30.8409C20.3029 31.2832 21.7863 31.7681 23.3841 32.0982C24.2118 32.1904 24.8166 31.8459 25.0069 31.1372L25.007 31.1369C25.2001 30.419 24.7509 29.7221 24.0531 29.476C21.148 28.9431 18.3041 27.7372 16.5601 27.1718L16.5598 27.1717C15.1968 26.7291 13.9483 27.2923 12.7073 28.01L7.34498 31.1146ZM4.97951 29.7374L4.97899 29.7365C4.87563 29.5567 4.64467 29.4915 4.46427 29.5933L2.42923 30.7454L2.42863 30.7458C2.24866 30.8474 2.18568 31.0785 2.28817 31.2592L2.28834 31.2596L8.26769 41.825L8.26803 41.8255C8.36992 42.0059 8.60157 42.069 8.78292 41.9674L10.8147 40.8158L10.8155 40.8153C10.996 40.7134 11.0591 40.4817 10.9574 40.3002L4.97951 29.7374ZM4.19027 30.8637C4.65175 30.795 5.08027 31.1137 5.14895 31.5751C5.21486 32.0366 4.89625 32.4678 4.43477 32.5337C3.97329 32.6024 3.54476 32.281 3.47609 31.8196C3.41017 31.3581 3.72878 30.9296 4.19027 30.8637ZM15.918 8.1246C15.918 7.87803 16.0495 7.65018 16.2631 7.52689L19.8852 5.4356L22.8439 3.72753L26.4661 1.63624C26.6796 1.51295 26.9427 1.51295 27.1563 1.63624L37.3593 7.52689C37.5728 7.65018 37.7044 7.87803 37.7044 8.1246V19.9059C37.7044 20.1525 37.5728 20.3803 37.3593 20.5036L27.1563 26.3943C26.9427 26.5176 26.6796 26.5176 26.4661 26.3943L16.2631 20.5036C16.0495 20.3803 15.918 20.1525 15.918 19.9059V8.1246ZM20.2303 6.83031L17.9886 8.1246L26.8112 13.2182L29.0529 11.924L20.2303 6.83031ZM23.1889 5.12216L21.6107 6.03331L30.4333 11.127L32.0116 10.2159L23.1889 5.12216ZM35.6338 8.1246L26.8112 3.03095L24.5693 4.32524L33.3919 9.41889L35.6338 8.1246ZM27.5014 24.601L36.324 19.5074V9.32002L34.0822 10.6143V14.8559C34.0822 15.1025 33.9507 15.3303 33.7371 15.4536L30.7783 17.1617C30.5648 17.285 30.3018 17.285 30.0882 17.1617C29.8746 17.0383 29.7431 16.8105 29.7431 16.5639V13.1195L27.5014 14.4138V24.601ZM17.2984 9.32002V19.5074L26.121 24.601V14.4138L17.2984 9.32002ZM32.7018 11.4113L31.1235 12.3225V15.3686L32.7018 14.4574V11.4113ZM36.2509 3.96384C36.1523 4.3318 35.7736 4.55042 35.4056 4.45189C35.0376 4.35328 34.8189 3.97454 34.9175 3.60658L35.585 1.11514C35.6837 0.747267 36.0624 0.528561 36.4304 0.627173C36.7983 0.725698 37.017 1.10453 36.9184 1.47249L36.2509 3.96384ZM39.7776 12.0612C39.4098 11.9623 39.1915 11.5833 39.2904 11.2154C39.3894 10.8476 39.7684 10.6292 40.1362 10.7282L42.6294 11.3988C42.9972 11.4978 43.2156 11.8768 43.1166 12.2446C43.0177 12.6125 42.6387 12.8308 42.2708 12.7318L39.7776 12.0612ZM39.6901 7.28489C39.3602 7.4753 38.9378 7.36211 38.7473 7.03219C38.5568 6.70237 38.67 6.27988 38.9999 6.08938L41.2378 4.79742C41.5676 4.60693 41.9901 4.72012 42.1806 5.05004C42.371 5.37995 42.2578 5.80235 41.9279 5.99284L39.6901 7.28489ZM18.7048 3.60658C18.8034 3.97454 18.5847 4.35328 18.2168 4.45189C17.8488 4.55042 17.4701 4.3318 17.3715 3.96384L16.7039 1.47249C16.6053 1.10453 16.824 0.725698 17.1919 0.627173C17.5599 0.528561 17.9386 0.747267 18.0372 1.11514L18.7048 3.60658ZM13.4861 10.7282C13.854 10.6292 14.2329 10.8476 14.3318 11.2154C14.4308 11.5833 14.2125 11.9623 13.8446 12.0612L11.3515 12.7318C10.9837 12.8308 10.6047 12.6125 10.5057 12.2446C10.4068 11.8768 10.6251 11.4978 10.9929 11.3988L13.4861 10.7282ZM14.6224 6.08938C14.9523 6.27988 15.0655 6.70237 14.875 7.03219C14.6846 7.36211 14.2621 7.4753 13.9322 7.28489L11.6944 5.99284C11.3645 5.80235 11.2513 5.37995 11.4418 5.05004C11.6322 4.72012 12.0547 4.60693 12.3846 4.79742L14.6224 6.08938Z" fill="#FE4040"></path></g><defs><clipPath id="clip0_1_685"><rect width="44" height="44" fill="white"></rect></clipPath></defs></svg>