<svg xmlns="http://www.w3.org/2000/svg" width="20" height="20" viewBox="0 0 20 20" fill="none"><path id="Vector" d="M16.7838 15.6083L14.0812 12.9057C14.9002 11.8335 15.3495 10.5329 15.3496 9.16056C15.3496 7.50671 14.7055 5.95174 13.5359 4.78231C12.3664 3.61287 10.8117 2.96875 9.15761 2.96875C7.50376 2.96875 5.94879 3.61287 4.77936 4.78231C2.36521 7.19666 2.36521 11.1249 4.77936 13.5388C5.94879 14.7085 7.50376 15.3526 9.15761 15.3526C10.53 15.3524 11.8305 14.9032 12.9028 14.0841L15.6054 16.7867C15.7679 16.9495 15.9813 17.0308 16.1946 17.0308C16.4078 17.0308 16.6212 16.9495 16.7838 16.7867C17.1093 16.4614 17.1093 15.9336 16.7838 15.6083ZM5.95774 12.3604C4.19342 10.5961 4.19362 7.72522 5.95774 5.96069C6.81244 5.1062 7.94891 4.63542 9.15761 4.63542C10.3665 4.63542 11.5028 5.1062 12.3575 5.96069C13.2122 6.81539 13.683 7.95186 13.683 9.16056C13.683 10.3695 13.2122 11.5057 12.3575 12.3604C11.5028 13.2151 10.3665 13.6859 9.15761 13.6859C7.94891 13.6859 6.81244 13.2151 5.95774 12.3604Z" fill="#000"></path></svg>