<svg xmlns="http://www.w3.org/2000/svg" width="44" height="44" viewBox="0 0 44 44" fill="none"><g id="team 1" clip-path="url(#clip0_1_658)"><path id="Vector" d="M44 18.4516H42.4053L40.0285 19.7022C39.761 19.5546 39.4827 19.4295 39.1827 19.3543L36.1929 18.6062V18.2662C37.5155 17.3431 38.3226 15.818 38.3226 14.1935V12.953C38.3226 10.1961 36.1624 7.88892 33.5073 7.80853C33.3725 7.80507 33.2398 7.80992 33.1064 7.8165L33.8816 6.00176L30.1235 2.24477L27.9082 3.68665C27.0665 3.21261 26.1763 2.84356 25.2518 2.58471L24.7046 0H19.2961L18.7489 2.5854C17.8244 2.84425 16.9335 3.2133 16.0925 3.68734L13.8772 2.24546L10.1223 6.00038L10.8843 7.8165C10.8552 7.81511 10.8274 7.80992 10.7983 7.80922C9.43926 7.76972 8.15921 8.26559 7.18687 9.20952C6.21314 10.1528 5.67742 11.4186 5.67742 12.7742V14.1935C5.67742 15.818 6.48378 17.3424 7.80645 18.2655V18.6062L5.85623 19.0937L2.32135 17.0323H0V31.7376L6.98173 34.0645H8.34148L8.51128 33.4699L10.6514 34.7544C10.6864 35.9181 11.6196 36.8544 12.7822 36.8953C12.8231 38.053 13.7535 38.9834 14.9112 39.0243C14.9521 40.182 15.8825 41.1124 17.0402 41.1533C17.0825 42.3381 18.0528 43.2903 19.2472 43.2903C19.6908 43.2903 20.1257 43.1521 20.4912 42.9057L21.1198 43.4608C21.5138 43.8077 22.0211 44 22.5479 44H22.6792C23.8601 44 24.821 43.0453 24.8359 41.8682C26.0041 41.8533 26.9501 40.9073 26.965 39.7392C28.1338 39.7243 29.0805 38.7769 29.094 37.6081C30.2736 37.5803 31.2258 36.6167 31.2258 35.4305C31.2258 35.3591 31.2223 35.2888 31.2151 35.2177L44 28.8258V18.4516ZM36.9032 12.953V14.1935C36.9032 15.4532 36.2227 16.6299 35.127 17.2644L34.7721 17.4696L34.7749 19.7154L38.3205 20.6011L30.5161 24.7088V22.797C30.5161 21.843 30.1308 20.9694 29.4998 20.3239L31.9355 19.7154V17.4678L31.5813 17.263C30.4863 16.6299 29.8065 15.4532 29.8065 14.1935V12.7742C29.8065 11.8064 30.189 10.9012 30.8845 10.2273C31.5793 9.55362 32.501 9.19046 33.4647 9.22789C35.3605 9.28472 36.9032 10.956 36.9032 12.953ZM23.0701 24.1509L19.8575 23.1241C18.3934 22.6549 16.8088 22.5849 15.31 22.9169L14.9032 23.007V22.797C14.9032 21.8184 15.5668 20.9688 16.5156 20.731L20.5806 19.7154V17.4678L20.2265 17.263C19.1315 16.6299 18.4516 15.4532 18.4516 14.1935V12.7742C18.4516 11.8064 18.8342 10.9012 19.5296 10.2273C20.2244 9.55362 21.1521 9.19046 22.1098 9.22789C24.0057 9.28472 25.5484 10.956 25.5484 12.953V14.1935C25.5484 15.4532 24.8678 16.6299 23.7721 17.2644L23.4173 17.4696L23.42 19.7154L27.4844 20.731C28.4332 20.9688 29.0968 21.8184 29.0968 22.797V25.4562L28.9214 25.5484H28.4865L24.1235 24.3016C23.7797 24.2042 23.4256 24.1644 23.0701 24.1509ZM15.0623 10.6216C16.395 8.03932 19.0774 6.3871 22 6.3871C24.8948 6.3871 27.5658 8.01714 28.9086 10.5644C28.5708 11.2419 28.3871 11.9921 28.3871 12.7742V14.1935C28.3871 15.818 29.1935 17.3424 30.5161 18.2655V18.6062L27.6774 19.3169L24.838 18.6062V18.2662C26.1607 17.3431 26.9677 15.818 26.9677 14.1935V12.953C26.9677 10.1961 24.8075 7.88892 22.1525 7.80853C20.7941 7.76868 19.5134 8.2649 18.541 9.20883C17.568 10.1528 17.0323 11.4186 17.0323 12.7742V14.1935C17.0323 15.818 17.8386 17.3424 19.1613 18.2655V18.6062L16.3226 19.3169L13.4832 18.6062V18.2662C14.8059 17.3431 15.6129 15.818 15.6129 14.1935V12.953C15.6129 12.1179 15.4119 11.325 15.0623 10.6216ZM11.7984 6.32957L14.0657 4.06228L16.0613 5.36104L16.4432 5.1268C17.3999 4.54048 18.4339 4.11114 19.5161 3.85229L19.9527 3.74764L20.4465 1.41935H23.5542L24.0466 3.74694L24.4832 3.85125C25.5654 4.11045 26.5994 4.53979 27.5561 5.1261L27.938 5.36035L29.9336 4.06159L32.1982 6.3268L31.3932 8.21154C30.8453 8.44717 30.3373 8.77879 29.8952 9.20744C29.8661 9.23586 29.8411 9.26635 29.8127 9.29546C28.1407 6.63763 25.1849 4.96774 22 4.96774C18.7922 4.96774 15.8281 6.65323 14.1603 9.33808C13.714 8.87097 13.1831 8.49257 12.5947 8.22817L11.7984 6.32957ZM9.22581 19.7154V17.4678L8.87166 17.263C7.77665 16.6299 7.09677 15.4532 7.09677 14.1935V12.7742C7.09677 11.8064 7.47933 10.9012 8.1748 10.2273C8.86958 9.55362 9.79341 9.19046 10.755 9.22789C12.6508 9.28472 14.1935 10.956 14.1935 12.953V14.1935C14.1935 15.4532 13.513 16.6299 12.4173 17.2644L12.0624 17.4696L12.0652 19.7154L14.5002 20.3239C13.8692 20.9694 13.4839 21.843 13.4839 22.797V23.3227L11.2703 23.8147L11.3278 23.6138L11.3548 22.3022L7.61205 20.1187L9.22581 19.7154ZM1.41935 18.4516H1.93671L7.04064 21.4286L4.46528 31.7297L1.41935 30.714V18.4516ZM7.21182 32.6452L5.81499 32.1798L8.31688 22.1733L9.93548 23.1172V23.3199L7.27142 32.6452H7.21182ZM12.0645 34.6883C12.0645 34.479 12.1491 34.2738 12.2974 34.1255L13.5449 32.878C13.6932 32.7297 13.8983 32.6452 14.1076 32.6452C14.5463 32.6452 14.9032 33.0021 14.9032 33.4408C14.9032 33.6501 14.8187 33.8552 14.6704 34.0035L13.4229 35.251C13.2746 35.3993 13.0694 35.4839 12.8601 35.4839C12.4214 35.4839 12.0645 35.127 12.0645 34.6883ZM14.1935 36.8173C14.1935 36.608 14.2781 36.4029 14.4264 36.2545L15.6739 35.0071C15.8222 34.8587 16.0273 34.7742 16.2366 34.7742C16.6753 34.7742 17.0323 35.1311 17.0323 35.5698C17.0323 35.7791 16.9477 35.9842 16.7994 36.1326L15.5519 37.38C15.4036 37.5284 15.1985 37.6129 14.9892 37.6129C14.5505 37.6129 14.1935 37.256 14.1935 36.8173ZM16.3226 38.9463C16.3226 38.737 16.4071 38.5319 16.5554 38.3836L17.8029 37.1361C17.9512 36.9878 18.1564 36.9032 18.3657 36.9032C18.8044 36.9032 19.1613 37.2601 19.1613 37.6988C19.1613 37.9081 19.0767 38.1133 18.9284 38.2616L17.6809 39.5091C17.5326 39.6574 17.3275 39.7419 17.1182 39.7419C16.6795 39.7419 16.3226 39.385 16.3226 38.9463ZM19.2472 41.871C18.8085 41.871 18.4516 41.5141 18.4516 41.0754C18.4516 40.8661 18.5362 40.6609 18.6845 40.5126L19.932 39.2651C20.0803 39.1168 20.2854 39.0323 20.4947 39.0323C20.9334 39.0323 21.2903 39.3892 21.2903 39.8279C21.2903 40.0372 21.2058 40.2423 21.0575 40.3906L19.81 41.6381C19.6617 41.7864 19.4565 41.871 19.2472 41.871ZM22.6792 42.5806H22.5479C22.367 42.5806 22.1937 42.5148 22.0589 42.3953L21.528 41.9271L22.061 41.3942C22.2512 41.2039 22.3988 40.9776 22.508 40.7347L23.1532 41.2718C23.322 41.4125 23.4194 41.6197 23.4194 41.8405C23.4194 42.2487 23.0874 42.5806 22.6792 42.5806ZM29.0434 36.1936H28.9207C28.7426 36.1936 28.5687 36.1305 28.4325 36.0161L24.584 32.8091L23.6747 33.8999L27.412 37.0138C27.58 37.1545 27.6774 37.3617 27.6774 37.5824C27.6774 37.9906 27.3455 38.3226 26.9373 38.3226H26.7824C26.6101 38.3226 26.4417 38.2616 26.309 38.1507L22.4543 34.9388L21.545 36.0296L25.2823 39.1438C25.451 39.2835 25.5484 39.4907 25.5484 39.7114C25.5484 40.1196 25.2164 40.4516 24.8082 40.4516C24.5359 40.4516 24.2704 40.3549 24.0615 40.1813L22.4775 38.8611C22.1286 38.1479 21.4116 37.6507 20.572 37.6209C20.5311 36.4631 19.6007 35.5327 18.443 35.4918C18.4021 34.3341 17.4716 33.4037 16.3139 33.3628C16.2723 32.1781 15.3021 31.2258 14.1076 31.2258C13.5244 31.2258 12.9537 31.4621 12.5413 31.8745L11.2939 33.122C11.2193 33.1965 11.1577 33.281 11.0949 33.3649L8.91498 32.0568L10.826 25.3682L15.6171 24.303C16.8739 24.022 18.199 24.0829 19.4246 24.4752L20.4701 24.8096L16.9259 26.5817C16.1161 26.9875 15.6129 27.8022 15.6129 28.708V28.8483C15.6129 30.1592 16.6795 31.2258 17.9904 31.2258C18.4211 31.2258 18.8449 31.1087 19.2133 30.8866L21.8558 29.3019C22.3867 28.9838 23.0992 29.0535 23.5576 29.4658L29.5538 34.8622C29.7143 35.0078 29.8065 35.2143 29.8065 35.4305C29.8065 35.8515 29.4644 36.1936 29.0434 36.1936ZM42.5806 27.9484L30.6246 33.9269C30.5858 33.8857 30.5452 33.8466 30.5026 33.8084L24.5074 28.412C23.9821 27.938 23.3029 27.6774 22.5953 27.6774C22.078 27.6774 21.57 27.8181 21.125 28.0849L18.4814 29.6703C18.3331 29.7597 18.1637 29.8065 17.9904 29.8065C17.4616 29.8065 17.0323 29.3771 17.0323 28.8483V28.708C17.0323 28.3424 17.2353 28.0146 17.5617 27.8514L21.5204 25.872C22.1979 25.5328 23.0021 25.4569 23.7323 25.6669L28.192 26.9407L29.2721 26.9677L42.5806 19.9631V27.9484Z" fill="#00BD39"></path></g><defs><clipPath id="clip0_1_658"><rect width="44" height="44" fill="white"></rect></clipPath></defs></svg>