<svg xmlns="http://www.w3.org/2000/svg" width="16" height="16" viewBox="0 0 16 16" fill="none"><path id="Vector" d="M3.88176 15.9999C2.85964 16 1.89439 15.5949 1.14967 14.8503C0.369892 14.0705 -0.0374194 13.0487 0.00270552 11.9733C0.0441742 10.8626 0.545954 9.79558 1.45383 8.88771L3.08845 7.24643C3.33201 7.00184 3.72773 7.00103 3.97232 7.24462C4.21688 7.48818 4.21773 7.88393 3.97413 8.12849L2.33864 9.77071C1.0133 11.0961 0.888235 12.821 2.03361 13.9664C3.17901 15.1119 4.90398 14.9868 6.22835 13.6623L8.47481 11.4158C9.15572 10.7349 9.53122 9.95746 9.56069 9.16752C9.58772 8.44346 9.31009 7.75218 8.77897 7.22106C8.601 7.04312 8.40409 6.89212 8.19369 6.77228C7.89375 6.60143 7.7891 6.21978 7.95994 5.91987C8.13081 5.61994 8.51247 5.51531 8.81234 5.68612C9.11978 5.86125 9.40594 6.08031 9.66287 6.33722C10.4427 7.117 10.85 8.13871 10.8098 9.21418C10.7684 10.3249 10.2666 11.3919 9.35872 12.2997L7.11225 14.5462C6.20435 15.4541 5.13741 15.9558 4.0267 15.9973C3.97832 15.999 3.92992 15.9999 3.88176 15.9999ZM8.04013 10.0801C8.21097 9.78015 8.10628 9.39849 7.80638 9.22768C7.59597 9.10784 7.39903 8.95684 7.2211 8.77893C6.07572 7.63353 6.20079 5.90856 7.52522 4.58413L9.77169 2.33769C11.0962 1.01329 12.8211 0.888196 13.9664 2.03357C15.1118 3.17894 14.9867 4.90391 13.6614 6.22925L12.0259 7.87146C11.7823 8.11603 11.7831 8.51178 12.0277 8.75534C12.2723 8.99893 12.668 8.99805 12.9116 8.75352L14.5462 7.11222C15.4541 6.20434 15.9558 5.13738 15.9973 4.02669C16.0375 2.95122 15.6301 1.92948 14.8504 1.1497C14.0706 0.369885 13.0483 -0.0373646 11.9734 0.00269782C10.8627 0.0441665 9.79569 0.545947 8.88784 1.45382L6.64135 3.70025C5.73348 4.60813 5.23173 5.67509 5.19023 6.78578C5.1501 7.86125 5.55741 8.88299 6.33719 9.6628C6.5941 9.91968 6.88025 10.1387 7.18772 10.3139C7.28535 10.3695 7.3916 10.3959 7.49647 10.3959C7.71375 10.3959 7.92488 10.2824 8.04013 10.0801Z" fill="black"></path></svg>