<svg xmlns="http://www.w3.org/2000/svg" width="20" height="20" viewBox="0 0 20 20" fill="none"><g id="right-arrow 1"><path id="Vector" fill-rule="evenodd" clip-rule="evenodd" d="M18.4828 10.0221C18.4828 9.21132 18.1467 8.52659 17.622 7.83893C17.1167 7.17659 16.3744 6.43426 15.4534 5.5133L14.0326 4.09251C13.1117 3.17151 12.3693 2.42916 11.707 1.92382C11.0193 1.39914 10.3345 1.06311 9.52384 1.06311C8.71315 1.06311 8.02841 1.39914 7.34076 1.92382C6.67842 2.42916 5.9361 3.1715 5.01514 4.09249L3.59435 5.51328C2.67335 6.43425 1.931 7.17659 1.42564 7.83893C0.900973 8.52659 0.564941 9.21132 0.564941 10.0221C0.564941 10.8327 0.900973 11.5175 1.42564 12.2051C1.931 12.8675 2.67335 13.6098 3.59435 14.5307L5.01511 15.9515C5.93608 16.8725 6.67841 17.6149 7.34076 18.1202C8.02841 18.6449 8.71315 18.9809 9.52384 18.9809C10.3345 18.9809 11.0193 18.6449 11.707 18.1202C12.3693 17.6149 13.1117 16.8725 14.0326 15.9516L15.4534 14.5308C16.3743 13.6098 17.1167 12.8675 17.622 12.2051C18.1467 11.5175 18.4828 10.8327 18.4828 10.0221ZM13.8383 10.5271C14.1173 10.2481 14.1173 9.79586 13.8383 9.51695L10.9812 6.65981C10.7022 6.38085 10.25 6.38085 9.97108 6.65981C9.69213 6.93875 9.69213 7.39101 9.97108 7.66996L11.6088 9.30772H6.47612C6.08163 9.30772 5.76183 9.62748 5.76183 10.0221C5.76183 10.4165 6.08163 10.7363 6.47612 10.7363H11.6088L9.97108 12.3741C9.69213 12.653 9.69213 13.1053 9.97108 13.3842C10.25 13.6632 10.7022 13.6632 10.9812 13.3842L13.8383 10.5271Z" fill="#FCB300"></path></g></svg>