<svg xmlns="http://www.w3.org/2000/svg" width="72" height="72" viewBox="0 0 72 72" fill="none"><g id="vegetable 1"><g id="Group"><g id="Group_2"><g id="Group_3"><path id="Vector" d="M69.75 40.4438V42.8062C69.75 46.7887 68.085 50.5687 65.1937 53.2912L60.8175 52.6275C62.2237 50.31 63 47.61 63 44.82V40.68C63 38.3512 62.46 36.09 61.47 34.065C60.7387 32.5575 59.7375 31.185 58.5112 30.0038L58.5225 29.9925C59.1525 28.845 60.3562 28.125 61.695 28.125C62.4712 28.125 63.225 28.3725 63.855 28.8337C67.5675 31.5787 69.75 35.8763 69.75 40.4438Z" fill="#FCD770"></path><path id="Vector_2" d="M57.195 28.845C57.6675 29.205 58.1175 29.5875 58.5112 30.0038C59.7375 31.185 60.7387 32.5575 61.47 34.065C62.46 36.09 63 38.3512 63 40.68V44.82C63 47.61 62.2238 50.31 60.8175 52.6275L50.265 51.0075V50.9963C49.7588 49.05 49.5 47.0587 49.5 45.0337V40.4663C49.5 38.9025 49.6575 37.3387 49.9612 35.8088C50.5125 35.9325 51.1087 36 51.75 36C54.2362 36 56.25 34.9875 56.25 33.75C56.25 32.9513 55.4175 32.2537 54.1688 31.86L54.5063 28.17C54.6863 28.1363 54.8775 28.125 55.0688 28.125C55.8338 28.125 56.5875 28.3837 57.195 28.845Z" fill="#FCD770"></path><path id="Vector_3" d="M43.6163 28.6088C44.2125 28.9463 44.6963 29.4412 45.0225 30.06V30.0712C42.1538 32.8275 40.5 36.6525 40.5 40.68V44.82C40.5 46.4738 40.7813 48.0938 41.31 49.6238L34.9988 48.6562C34.1888 46.8337 33.75 44.8537 33.75 42.8062V40.4438C33.75 39.6 33.8288 38.7563 33.975 37.935C34.02 37.6988 34.065 37.4625 34.1212 37.2262C34.8862 33.9075 36.8213 30.9262 39.645 28.8337C40.275 28.3725 41.0287 28.125 41.805 28.125C42.4575 28.125 43.0763 28.2938 43.6163 28.6088Z" fill="#FCD770"></path><path id="Vector_4" d="M48.9937 28.1475L49.3312 31.86C48.0825 32.2537 47.25 32.9513 47.25 33.75C47.25 34.6725 48.3637 35.46 49.9613 35.8088C49.6575 37.3387 49.5 38.9025 49.5 40.4663V45.0337C49.5 47.0587 49.7587 49.05 50.265 50.9963L43.2 49.9162L41.31 49.6238C40.7813 48.0938 40.5 46.4738 40.5 44.82V40.68C40.5 36.6525 42.1538 32.8275 45.0225 30.0712V30.06C45.4725 29.6212 45.945 29.2162 46.4513 28.845C47.0813 28.3837 47.8462 28.125 48.6337 28.125C48.7575 28.125 48.87 28.1363 48.9825 28.1475H48.9937Z" fill="#FCD770"></path></g><path id="Vector_5" d="M56.25 33.75C56.25 34.9875 54.2362 36 51.75 36C51.1088 36 50.5125 35.9325 49.9612 35.8088C48.3637 35.46 47.25 34.6725 47.25 33.75C47.25 32.9513 48.0825 32.2537 49.3312 31.86L48.9937 28.1475L48.3862 21.5212C48.375 21.42 48.375 21.33 48.375 21.2288C48.375 19.44 49.815 18 51.6037 18H51.8963C52.785 18 53.595 18.36 54.18 18.945C54.765 19.53 55.125 20.34 55.125 21.2288C55.125 21.33 55.125 21.42 55.1138 21.5212L54.5063 28.17L54.1688 31.86C55.4175 32.2537 56.25 32.9513 56.25 33.75Z" fill="#CF9E76"></path><path id="Vector_6" d="M26.8988 6.89625C27.2925 6.80625 27.7087 6.75 28.125 6.75C29.9587 6.75 31.6012 7.6275 32.625 9L32.6025 9.1125C32.2425 9.03375 31.8825 9 31.5 9C29.1712 9 27.18 10.4062 26.325 12.42C26.1787 12.4087 26.0325 12.375 25.875 12.375C23.0513 12.375 20.7337 14.4675 20.3287 17.1788C17.0437 18.1238 14.625 21.15 14.625 24.75C14.625 27.8213 16.38 30.465 18.945 31.77C18.3488 32.6588 18 33.7275 18 34.875C18 36.8775 19.0575 38.6213 20.6325 39.6225C20.3962 40.2413 20.25 40.9162 20.25 41.625C20.25 44.73 22.77 47.2837 25.875 47.2837C25.5825 47.2612 25.3013 47.25 25.02 47.25H24.75C22.5562 47.25 20.5088 47.88 18.7763 48.9712L15.75 40.5C12.645 40.5 10.125 37.98 10.125 34.875C10.125 34.1663 10.2713 33.4912 10.5075 32.8725C8.9325 31.8713 7.875 30.1275 7.875 28.125C7.875 26.9775 8.22375 25.9088 8.82 25.02C6.255 23.715 4.5 21.0713 4.5 18C4.5 14.4 6.91875 11.3738 10.2037 10.4288C10.6087 7.7175 12.9263 5.625 15.75 5.625C15.9075 5.625 16.0538 5.65875 16.2 5.67C17.055 3.65625 19.0463 2.25 21.375 2.25C24.1425 2.25 26.4375 4.2525 26.8988 6.89625Z" fill="#8CC152"></path><path id="Vector_7" d="M42.255 23.0625C43.2563 24.075 43.875 25.47 43.875 27C43.875 27.5287 43.7963 28.0463 43.6613 28.53L43.6163 28.6087C43.0763 28.2938 42.4575 28.125 41.805 28.125C41.0287 28.125 40.275 28.3725 39.645 28.8337C36.8213 30.9262 34.8862 33.9075 34.1213 37.2262C34.065 37.4625 34.02 37.6988 33.975 37.935C33.8288 38.7563 33.75 39.6 33.75 40.4438V42.8062C33.75 44.8537 34.1888 46.8338 34.9988 48.6562L26.73 47.385C26.4375 47.34 26.1562 47.3062 25.875 47.2837C22.77 47.2837 20.25 44.73 20.25 41.625C20.25 40.9163 20.3963 40.2413 20.6325 39.6225C19.0575 38.6213 18 36.8775 18 34.875C18 33.7275 18.3488 32.6588 18.945 31.77C16.38 30.465 14.625 27.8213 14.625 24.75C14.625 21.15 17.0437 18.1238 20.3287 17.1788C20.7337 14.4675 23.0513 12.375 25.875 12.375C26.0325 12.375 26.1788 12.4088 26.325 12.42C27.18 10.4062 29.1713 9 31.5 9C31.8825 9 32.2425 9.03375 32.6025 9.1125C34.8637 9.5625 36.63 11.3625 37.0238 13.6463C37.4175 13.5563 37.8337 13.5 38.25 13.5C41.355 13.5 43.875 16.02 43.875 19.125C43.875 20.655 43.2563 22.05 42.255 23.0625Z" fill="#B4DD7F"></path><path id="Vector_8" d="M7.65 56.25H13.725C13.5787 56.97 13.5 57.7237 13.5 58.5C13.5 59.2762 13.5787 60.03 13.725 60.75H7.65H4.5C3.88125 60.75 3.31875 60.5025 2.91375 60.0862C2.4975 59.6812 2.25 59.1188 2.25 58.5C2.25 57.2625 3.2625 56.25 4.5 56.25H7.65Z" fill="#B4DD7F"></path><path id="Vector_9" d="M8.08875 51.795L14.7825 53.2912C14.2987 54.2137 13.9387 55.2037 13.725 56.25H7.65C6.53625 56.25 5.625 55.3388 5.625 54.225V53.775C5.625 52.6612 6.53625 51.75 7.65 51.75C7.79625 51.75 7.9425 51.7613 8.08875 51.795Z" fill="#B4DD7F"></path><path id="Vector_10" d="M14.7825 63.7088L8.08875 65.205C7.9425 65.2387 7.79625 65.25 7.65 65.25C6.53625 65.25 5.625 64.3388 5.625 63.225V62.775C5.625 61.6612 6.53625 60.75 7.65 60.75H13.725C13.9387 61.7962 14.2987 62.7863 14.7825 63.7088Z" fill="#B4DD7F"></path><path id="Vector_11" d="M68.49 55.08C67.6912 54.1575 66.5775 53.505 65.3062 53.3137L65.1938 53.2912L60.8175 52.6275L50.265 51.0075V50.9963L43.2 49.9162L41.31 49.6238L34.9988 48.6562L26.73 47.385C26.4375 47.34 26.1562 47.3062 25.875 47.2837C25.5825 47.2612 25.3012 47.25 25.02 47.25H24.75C22.5562 47.25 20.5088 47.88 18.7763 48.9712C17.0888 50.0287 15.705 51.525 14.7825 53.2912C14.2988 54.2137 13.9387 55.2038 13.725 56.25C13.5787 56.97 13.5 57.7238 13.5 58.5C13.5 59.2762 13.5787 60.03 13.725 60.75C13.9387 61.7963 14.2988 62.7863 14.7825 63.7088C15.3113 64.7213 15.9975 65.655 16.7963 66.4538C18.8325 68.49 21.645 69.75 24.75 69.75H25.02C25.5825 69.75 26.1562 69.705 26.73 69.615L43.2 67.0838L65.3062 63.6863C67.86 63.2925 69.75 61.0875 69.75 58.5C69.75 57.2063 69.2775 56.0025 68.49 55.08Z" fill="#FF826E"></path></g><g id="Group_4"><path id="Vector_12" d="M70.875 40.4426C70.875 35.5444 68.5001 30.8666 64.5221 27.9304C63.711 27.3296 62.7053 27 61.6916 27C60.4226 27 59.2335 27.5074 58.3605 28.3703C58.1974 28.2341 58.0489 28.0845 57.8801 27.9551C57.2558 27.4781 56.5065 27.1946 55.737 27.0776L56.2331 21.6225C56.2444 21.492 56.25 21.3604 56.25 21.2288C56.25 18.828 54.297 16.875 51.8963 16.875H51.6037C49.203 16.875 47.25 18.828 47.25 21.2288C47.25 21.3604 47.2556 21.492 47.268 21.6236L47.7664 27.1024C47.0531 27.2374 46.3635 27.513 45.7808 27.9472C45.5794 28.098 45.4005 28.2712 45.207 28.4299C45.1069 28.3264 45.0011 28.2296 44.892 28.1362C44.9561 27.7616 45 27.3825 45 27C45 25.5713 44.5545 24.2044 43.7287 23.0625C44.5545 21.9206 45 20.5549 45 19.125C45 15.273 41.7409 12.1511 37.8574 12.3874C37.1351 10.3174 35.451 8.757 33.381 8.15513C32.0108 6.44625 29.9452 5.49788 27.7324 5.63738C26.8009 2.96775 24.2786 1.125 21.375 1.125C18.9394 1.125 16.722 2.42775 15.5273 4.50337C12.5483 4.6035 9.97312 6.70612 9.23512 9.57038C5.75212 10.8698 3.375 14.2414 3.375 18C3.375 21.0139 4.85775 23.769 7.31138 25.434C6.94125 26.2789 6.75 27.1924 6.75 28.125C6.75 30.15 7.65 32.0321 9.19463 33.3068C9.06525 33.8288 9 34.3541 9 34.875C9 38.322 11.5988 41.175 14.94 41.5766L17.4285 48.546C16.1539 49.4854 15.0682 50.661 14.2324 52.011L8.3385 50.7015C8.11462 50.6497 7.884 50.625 7.65225 50.625C5.91412 50.625 4.5 52.0391 4.5 53.7772V54.2228C4.5 54.5378 4.56075 54.837 4.64738 55.125H4.5C2.63925 55.125 1.125 56.6393 1.125 58.5C1.125 60.3607 2.63925 61.875 4.5 61.875H4.64738C4.56075 62.163 4.5 62.4622 4.5 62.7772V63.2228C4.5 64.9609 5.91412 66.375 7.65225 66.375C7.884 66.375 8.11462 66.3503 8.33625 66.2996L14.2324 64.989C16.416 68.5148 20.3074 70.875 24.75 70.875H25.0144C25.6399 70.875 26.2732 70.8266 26.8954 70.731L65.4728 64.7966C68.6025 64.314 70.875 61.6669 70.875 58.5C70.875 55.9676 69.4091 53.7885 67.2266 52.7614C69.5576 49.977 70.875 46.4445 70.875 42.8074V40.4426ZM56.5121 29.7428C59.8703 32.31 61.875 36.3994 61.875 40.6845V44.8166C61.875 47.1229 61.3001 49.3808 60.2168 51.3956L51.1954 50.0074C50.8241 48.375 50.625 46.7077 50.625 45.0337V40.4663C50.625 39.3323 50.7386 38.1994 50.9108 37.0766C51.1864 37.1003 51.4609 37.125 51.75 37.125C54.9574 37.125 57.375 35.6738 57.375 33.75C57.375 32.688 56.6404 31.7452 55.368 31.1265L55.5334 29.3062C55.8844 29.3771 56.2219 29.5189 56.5121 29.7428ZM51.6037 19.125H51.8974C53.0573 19.125 54.0011 20.0689 54.0011 21.2288C54.0011 21.2929 53.9989 21.357 53.9921 21.42L52.9706 32.6554L53.829 32.931C54.8145 33.246 55.125 33.6611 55.125 33.75C55.125 34.0301 53.928 34.875 51.75 34.875C49.572 34.875 48.375 34.0301 48.375 33.75C48.375 33.6611 48.6855 33.246 49.671 32.9299L50.5294 32.6542L49.5079 21.42C49.5023 21.3559 49.5 21.2918 49.5 21.2288C49.5 20.0689 50.4439 19.125 51.6037 19.125ZM47.97 29.3434L48.132 31.1265C46.8596 31.7452 46.125 32.688 46.125 33.75C46.125 34.9897 47.1364 36.0259 48.708 36.6109C48.5066 37.8877 48.375 39.177 48.375 40.4663V45.0337C48.375 46.5795 48.5235 48.123 48.8115 49.6406L42.1796 48.6202C41.8185 47.3839 41.625 46.1092 41.625 44.8155V40.6834C41.625 36.405 43.6815 32.3167 47.1263 29.7495C47.3771 29.5627 47.6662 29.4255 47.97 29.3434ZM35.8121 47.6404C35.2013 46.0946 34.875 44.4757 34.875 42.8074V40.4415C34.875 36.2543 36.909 32.2537 40.3144 29.7383C40.7419 29.4233 41.2729 29.25 41.8084 29.25C42.4879 29.25 43.1134 29.5234 43.5713 29.9812C40.9185 32.8883 39.375 36.7065 39.375 40.6845V44.8166C39.375 45.9765 39.5134 47.124 39.7643 48.249L35.8121 47.6404ZM35.9179 13.8386L36.1226 14.9963L37.2701 14.7409C37.6189 14.6632 37.9395 14.625 38.25 14.625C40.7318 14.625 42.75 16.6432 42.75 19.125C42.75 20.3074 42.291 21.4256 41.4585 22.2739L40.6845 23.0625L41.4585 23.8511C42.291 24.6994 42.75 25.8176 42.75 27C42.75 27.0338 42.7432 27.0675 42.7432 27.1024C42.4384 27.0416 42.1279 27 41.8084 27C40.7947 27 39.789 27.3296 38.9779 27.9293C36.9304 29.4401 35.3183 31.4167 34.2248 33.6431C33.7984 32.3156 33.3506 31.0444 32.8894 29.8372C33.93 24.3405 37.7899 21.159 37.8293 21.1264L37.125 20.25L36.4219 19.3714C36.2655 19.4963 33.2224 21.9814 31.5135 26.4645C29.1724 21.0893 26.9629 17.6119 26.8211 17.3914L24.9278 18.6086C24.9581 18.6548 26.6737 21.3536 28.6706 25.65C25.3057 24.3832 21.4819 24.7331 21.2625 24.7556L21.4864 26.9944C23.1784 26.8245 27.9709 26.9066 30.2096 29.1915C30.9983 31.1299 31.7756 33.255 32.4619 35.532C29.0419 33.7781 24.9615 33.75 24.75 33.75V36C24.8029 36 29.8114 36.0337 32.7758 38.3906C32.6835 39.0679 32.625 39.7519 32.625 40.4426V42.8085C32.625 44.3284 32.859 45.8145 33.2933 47.2545L26.8954 46.2701C26.5579 46.2184 26.217 46.1835 25.875 46.1587C23.3932 46.1587 21.375 44.1247 21.375 41.6261C21.375 41.1019 21.4796 40.5641 21.6844 40.0252L22.0129 39.1646L21.2332 38.6719C19.9136 37.8371 19.125 36.4185 19.125 34.875C19.125 33.9896 19.3849 33.1312 19.8765 32.391L20.5774 31.338L19.4501 30.7654C17.1675 29.6044 15.75 27.3004 15.75 24.75C15.75 21.7564 17.7615 19.0901 20.6426 18.2655L21.3412 18.0653L21.4459 17.3464C21.7665 15.1537 23.6711 13.5 25.875 13.5C25.9166 13.5 25.9571 13.509 25.9976 13.5146C26.0764 13.5259 26.1562 13.536 26.2361 13.5416L27.0427 13.6069L27.36 12.8621C28.0699 11.1994 29.6944 10.125 31.5 10.125C33.6802 10.125 35.5376 11.6865 35.9179 13.8386ZM16.5431 39.375H15.75C13.2682 39.375 11.25 37.3568 11.25 34.875C11.25 34.3496 11.3546 33.8119 11.5594 33.2752L11.889 32.4146L11.1094 31.9219C9.78862 31.0871 9 29.6685 9 28.125C9 27.2396 9.25988 26.3813 9.7515 25.641L10.4524 24.588L9.32512 24.0154C7.0425 22.8544 5.625 20.5504 5.625 18C5.625 15.0064 7.6365 12.3401 10.5165 11.5155L11.2151 11.3152L11.3197 10.5964C11.6415 8.40375 13.5461 6.75 15.75 6.75C15.7928 6.75 15.8344 6.759 15.876 6.76463C15.9525 6.77475 16.029 6.78488 16.1077 6.79163L16.9178 6.85913L17.2361 6.111C17.9449 4.44938 19.5694 3.375 21.375 3.375C23.5553 3.375 25.4126 4.9365 25.7929 7.08862L25.9976 8.24625L27.1451 7.99088C27.4939 7.91325 27.8145 7.875 28.125 7.875C28.6425 7.875 29.1341 7.98863 29.6044 8.15288C27.9506 8.63663 26.5264 9.73462 25.6523 11.2534C22.6733 11.3535 20.0981 13.4561 19.3601 16.3204C15.8771 17.6197 13.5 20.9914 13.5 24.75C13.5 27.7639 14.9827 30.519 17.4364 32.184C17.0662 33.0289 16.875 33.9424 16.875 34.875C16.875 36.9 17.775 38.7821 19.3196 40.0579C19.1903 40.5799 19.125 41.1041 19.125 41.625C19.125 43.6016 19.9755 45.378 21.3221 46.6177C20.6539 46.8112 20.0115 47.0621 19.395 47.3602L16.5431 39.375ZM6.75 54.2228V53.7772C6.75 53.2125 7.29675 52.7771 7.84913 52.8964L13.203 54.0866C13.0725 54.4264 12.9555 54.7718 12.8554 55.125H7.65225C7.155 55.125 6.75 54.72 6.75 54.2228ZM3.375 58.5C3.375 57.8801 3.88013 57.375 4.5 57.375H7.65225H12.4313C12.3986 57.7463 12.375 58.1198 12.375 58.5C12.375 58.8802 12.3986 59.2537 12.4324 59.625H7.65225H4.5C3.88013 59.625 3.375 59.1199 3.375 58.5ZM7.84687 64.1036C7.31362 64.2184 6.75 63.7864 6.75 63.2228V62.7772C6.75 62.28 7.155 61.875 7.65225 61.875H12.8542C12.9544 62.2282 13.0725 62.5736 13.2019 62.9134L7.84687 64.1036ZM68.625 58.5C68.625 60.5486 67.1558 62.2609 65.1319 62.5725L26.5556 68.5069C26.0449 68.5856 25.5263 68.625 25.0144 68.625H24.75C19.1677 68.625 14.625 64.0822 14.625 58.5C14.625 52.9178 19.1677 48.375 24.75 48.375H25.0144C25.5263 48.375 26.0449 48.4144 26.5545 48.492L65.1308 54.4264C67.1558 54.7391 68.625 56.4514 68.625 58.5ZM68.625 42.8074C68.625 46.2679 67.2244 49.6159 64.7876 52.0976L62.5522 51.7534C63.5794 49.5956 64.125 47.2297 64.125 44.8155V40.6834C64.125 36.6851 62.6017 32.8478 59.985 29.9363C60.4395 29.5076 61.0425 29.25 61.6916 29.25C62.2283 29.25 62.7581 29.4233 63.1856 29.7405C66.591 32.2538 68.625 36.2554 68.625 40.4426V42.8074Z" fill="black"></path><path id="Vector_13" d="M23.625 52.875H25.875V64.125H23.625V52.875Z" fill="black"></path><path id="Vector_14" d="M32.625 52.875H34.875V64.125H32.625V52.875Z" fill="black"></path><path id="Vector_15" d="M41.625 52.875H43.875V64.125H41.625V52.875Z" fill="black"></path><path id="Vector_16" d="M50.625 55.125H52.875V61.875H50.625V55.125Z" fill="black"></path><path id="Vector_17" d="M59.625 56.25H61.875V60.75H59.625V56.25Z" fill="black"></path></g></g></g></svg>