<svg xmlns="http://www.w3.org/2000/svg" width="30" height="29" viewBox="0 0 30 29" fill="none"><g id="heart"><path id="Vector" d="M25.3523 5.70572C24.7542 5.10734 24.044 4.63265 23.2624 4.30879C22.4808 3.98493 21.6431 3.81824 20.797 3.81824C19.951 3.81824 19.1132 3.98493 18.3316 4.30879C17.55 4.63265 16.8398 5.10734 16.2417 5.70572L15.0004 6.94701L13.7591 5.70572C12.551 4.49759 10.9124 3.81886 9.20386 3.81886C7.4953 3.81886 5.85672 4.49759 4.64858 5.70572C3.44044 6.91386 2.76172 8.55244 2.76172 10.261C2.76172 11.9696 3.44044 13.6082 4.64858 14.8163L5.88986 16.0576L15.0004 25.1681L24.111 16.0576L25.3523 14.8163C25.9507 14.2182 26.4254 13.508 26.7492 12.7264C27.0731 11.9448 27.2398 11.1071 27.2398 10.261C27.2398 9.41496 27.0731 8.5772 26.7492 7.79559C26.4254 7.01397 25.9507 6.30383 25.3523 5.70572Z" stroke="white" stroke-width="2.81046" stroke-linecap="round" stroke-linejoin="round"></path></g></svg>