<svg xmlns="http://www.w3.org/2000/svg" width="44" height="44" viewBox="0 0 44 44" fill="none"><g clip-path="url(#clip0_2060_2032)"><path d="M43.8677 12.9296C43.7607 10.5878 43.3887 8.98853 42.8449 7.58936C42.2927 6.12137 41.4266 4.79169 40.3074 3.69263C39.2086 2.57343 37.8786 1.707 36.4106 1.15445C35.0111 0.610962 33.4122 0.239349 31.0704 0.132935C28.7243 0.0255127 27.9747 0 22 0C16.0253 0 15.2757 0.0255127 12.9296 0.132263C10.5878 0.239349 8.98886 0.611298 7.58936 1.15512C6.12137 1.70734 4.79169 2.57343 3.69263 3.69263C2.57343 4.79135 1.707 6.12103 1.15445 7.58902C0.610962 8.98853 0.239349 10.5878 0.132935 12.9292C0.0255127 15.2757 0 16.025 0 21.9997C0 27.9747 0.0255127 28.7243 0.132935 31.0704C0.239685 33.4119 0.611633 35.0111 1.15546 36.4106C1.70767 37.8783 2.57376 39.2083 3.69296 40.307C4.79169 41.4262 6.1217 42.2923 7.58969 42.8445C8.98886 43.3887 10.5881 43.7603 12.9299 43.8674C15.2764 43.9745 16.0257 43.9997 22.0003 43.9997C27.975 43.9997 28.7246 43.9745 31.0708 43.8674C33.4126 43.7603 35.0115 43.3887 36.411 42.8445C39.3661 41.7018 41.7022 39.3658 42.8449 36.4106C43.389 35.0111 43.7607 33.4119 43.8677 31.0704C43.9745 28.7239 44 27.9747 44 22C44 16.025 43.9745 15.2757 43.8677 12.9296ZM39.9076 30.8902C39.8099 33.0352 39.4514 34.2001 39.1502 34.9752C38.41 36.894 36.8937 38.4104 34.9749 39.1506C34.1998 39.4517 33.0349 39.8102 30.8898 39.9079C28.5705 40.014 27.8746 40.0361 22 40.0361C16.125 40.0361 15.4295 40.014 13.1098 39.9079C10.9651 39.8102 9.80023 39.4517 9.02478 39.1506C8.0694 38.7978 7.20499 38.2355 6.49533 37.5047C5.76453 36.795 5.20224 35.9309 4.84943 34.9752C4.54831 34.2001 4.18979 33.0352 4.0921 30.8902C3.98636 28.5705 3.96387 27.8746 3.96387 22.0003C3.96387 16.1257 3.98636 15.4301 4.0921 13.1102C4.19012 10.9651 4.54831 9.80023 4.84943 9.02512C5.20224 8.0694 5.76486 7.20499 6.49533 6.49533C7.20499 5.76453 8.0694 5.20224 9.02512 4.84976C9.80023 4.54831 10.9651 4.19012 13.1102 4.0921C15.4298 3.98636 16.1257 3.96387 22 3.96387H21.9997C27.874 3.96387 28.5699 3.98636 30.8898 4.09244C33.0349 4.19012 34.1994 4.54865 34.9749 4.84976C35.9303 5.20258 36.7947 5.76486 37.5043 6.49533C38.2351 7.20499 38.7974 8.0694 39.1499 9.02512C39.4514 9.80023 39.8099 10.9651 39.9076 13.1102C40.0133 15.4298 40.0358 16.1257 40.0358 22C40.0358 27.8746 40.0136 28.5702 39.9076 30.8902Z" fill="url(#paint0_linear_2060_2032)"></path><path d="M21.9992 10.7026C15.76 10.7026 10.7021 15.7608 10.7021 22C10.7021 28.2392 15.76 33.2971 21.9992 33.2971C28.2388 33.2971 33.2967 28.2392 33.2967 22C33.2967 15.7608 28.2388 10.7026 21.9992 10.7026ZM21.9992 29.3332C17.9494 29.3329 14.666 26.0498 14.6664 21.9997C14.6664 17.9499 17.9494 14.6664 21.9996 14.6664C26.0497 14.6668 29.3328 17.9499 29.3328 21.9997C29.3328 26.0498 26.0494 29.3332 21.9992 29.3332Z" fill="url(#paint1_linear_2060_2032)"></path><path d="M36.3836 10.2564C36.3836 11.7144 35.2017 12.8963 33.7437 12.8963C32.2855 12.8963 31.1035 11.7144 31.1035 10.2564C31.1035 8.79819 32.2855 7.61621 33.7437 7.61621C35.2017 7.61621 36.3836 8.79819 36.3836 10.2564Z" fill="url(#paint2_linear_2060_2032)"></path></g><defs><linearGradient id="paint0_linear_2060_2032" x1="3.6924" y1="40.3072" x2="40.3076" y2="3.69205" gradientUnits="userSpaceOnUse"><stop stop-color="#FFD600"></stop><stop offset="0.5" stop-color="#FF0100"></stop><stop offset="1" stop-color="#D800B9"></stop></linearGradient><linearGradient id="paint1_linear_2060_2032" x1="14.0111" y1="29.9882" x2="29.9878" y2="14.0115" gradientUnits="userSpaceOnUse"><stop stop-color="#FF6400"></stop><stop offset="0.5" stop-color="#FF0100"></stop><stop offset="1" stop-color="#FD0056"></stop></linearGradient><linearGradient id="paint2_linear_2060_2032" x1="31.8769" y1="12.123" x2="35.6103" y2="8.38956" gradientUnits="userSpaceOnUse"><stop stop-color="#F30072"></stop><stop offset="1" stop-color="#E50097"></stop></linearGradient><clipPath id="clip0_2060_2032"><rect width="44" height="44" fill="white"></rect></clipPath></defs></svg>