<svg xmlns="http://www.w3.org/2000/svg" width="28" height="28" viewBox="0 0 28 28"><g id="phone-call 1" clip-path="url(#clip0_2070_3526)"><g id="Group"><path id="Vector" d="M23.9419 3.66795C21.5764 1.30248 18.4312 -0.000132302 15.0861 1.00786e-08C14.5379 1.00786e-08 14.0938 0.444304 14.0938 0.99234C14.0938 1.54038 14.5381 1.98468 15.0861 1.98468C17.9012 1.98455 20.5478 3.08075 22.5384 5.07139C24.5292 7.06202 25.6254 9.70879 25.6253 12.524C25.6253 13.072 26.0694 13.5163 26.6176 13.5163C27.1656 13.5163 27.61 13.072 27.61 12.5241C27.6101 9.17862 26.3075 6.03343 23.9419 3.66795Z" fill="#000"></path><path id="Vector_2" d="M19.8598 12.5241C19.8598 13.0721 20.3041 13.5164 20.8522 13.5163C21.4003 13.5163 21.8445 13.072 21.8445 12.524C21.8442 8.79806 18.8124 5.7664 15.0862 5.76587C15.0861 5.76587 15.0864 5.76587 15.0862 5.76587C14.5382 5.76587 14.0939 6.21004 14.0938 6.75808C14.0938 7.30611 14.5379 7.75042 15.086 7.75055C17.718 7.75095 19.8595 9.89228 19.8598 12.5241Z" fill="#000"></path><path id="Vector_3" d="M17.6641 17.5837C16.1515 17.5054 15.3809 18.6303 15.0114 19.1707C14.7019 19.6231 14.8178 20.2406 15.2702 20.5501C15.7225 20.8595 16.34 20.7436 16.6495 20.2913C17.0862 19.6528 17.284 19.5524 17.5523 19.5651C18.4111 19.6661 21.7937 22.1448 22.1324 22.9199C22.2173 23.1481 22.2142 23.3719 22.123 23.644C21.7679 24.698 21.18 25.4387 20.4227 25.7859C19.7031 26.1158 18.821 26.0859 17.8722 25.6998C14.3293 24.2557 11.234 22.2405 8.67243 19.7099C8.67137 19.7088 8.67031 19.7079 8.66939 19.7068C6.14408 17.1478 4.13254 14.0564 2.69087 10.519C2.30465 9.56935 2.27475 8.68709 2.6046 7.96771C2.95179 7.21036 3.69247 6.62249 4.74554 6.26777C5.01863 6.17621 5.24198 6.17329 5.4681 6.25744C6.24596 6.59735 8.72456 9.97978 8.82459 10.829C8.83888 11.1073 8.73766 11.305 8.09978 11.7409C7.64728 12.0499 7.53097 12.6674 7.84019 13.1199C8.14927 13.5724 8.76664 13.6886 9.21928 13.3795C9.7599 13.0104 10.8846 12.2419 10.8065 10.7242C10.7205 9.1388 7.63656 4.94041 6.163 4.39859C5.50766 4.15435 4.81831 4.15011 4.11336 4.38669C2.5272 4.92083 1.38164 5.87321 0.800527 7.14076C0.236878 8.37047 0.25474 9.79719 0.852791 11.2674C2.39568 15.0532 4.55435 18.3656 7.26873 21.113C7.27535 21.1198 7.28209 21.1264 7.28898 21.1329C10.0344 23.8422 13.343 25.9969 17.1237 27.538C17.8808 27.8459 18.6264 28 19.3394 28C20.0108 28 20.6535 27.8635 21.2497 27.5901C22.5174 27.0091 23.4697 25.8637 24.0042 24.2765C24.2403 23.5729 24.2364 22.8838 23.994 22.2315C23.4504 20.7539 19.252 17.67 17.6641 17.5837Z" fill="#000"></path></g></g><defs><clipPath id="clip0_2070_3526"><rect width="28" height="28" fill="#000"></rect></clipPath></defs></svg>