<svg xmlns="http://www.w3.org/2000/svg" width="16" height="16" viewBox="0 0 16 16" fill="none"><g id="pin 1" clip-path="url(#clip0_2056_1224)"><g id="Layer 2"><g id="Layer 1"><path id="Vector" d="M8.014 15.3366C12.0641 15.3366 15.3473 12.0534 15.3473 8.00332C15.3473 3.95323 12.0641 0.669983 8.014 0.669983C3.96391 0.669983 0.680664 3.95323 0.680664 8.00332C0.680664 12.0534 3.96391 15.3366 8.014 15.3366Z" fill="#07000E"></path><path id="Vector_2" d="M12.2562 6.41022L9.90955 4.06355C9.88726 4.04128 9.86014 4.02444 9.83029 4.01433C9.80044 4.00423 9.76867 4.00112 9.73743 4.00526C9.70619 4.0094 9.67632 4.02067 9.65014 4.0382C9.62395 4.05573 9.60215 4.07905 9.58642 4.10635C9.48555 4.29536 9.42422 4.50293 9.40615 4.71641C9.38809 4.92989 9.41368 5.14481 9.48135 5.34809L7.91375 6.91569C7.52664 6.7158 7.09819 6.6091 6.66255 6.60409C6.40127 6.59861 6.14148 6.6449 5.89817 6.74029C5.65486 6.83568 5.43283 6.97829 5.24489 7.15989C5.2064 7.19838 5.18478 7.25058 5.18478 7.30502C5.18478 7.35945 5.2064 7.41166 5.24489 7.45015L6.72815 8.93355L4.36975 11.6607C4.33564 11.6999 4.31766 11.7506 4.31946 11.8025C4.32125 11.8544 4.34268 11.9037 4.37942 11.9405C4.41616 11.9772 4.46547 11.9987 4.5174 12.0005C4.56933 12.0023 4.62002 11.9843 4.65922 11.9502L7.38589 9.59169L8.86942 11.0752C8.90792 11.1136 8.96012 11.1352 9.01455 11.1352C9.06898 11.1352 9.12118 11.1136 9.15969 11.0752C9.47675 10.7129 9.67109 10.2596 9.71489 9.78017C9.7587 9.30075 9.64972 8.81975 9.40355 8.40602L10.9712 6.83842C11.1747 6.90524 11.3895 6.93039 11.603 6.91238C11.8164 6.89436 12.024 6.83354 12.2134 6.73355C12.2408 6.71785 12.2642 6.69605 12.2817 6.66984C12.2993 6.64364 12.3106 6.61374 12.3147 6.58246C12.3189 6.55119 12.3157 6.51938 12.3056 6.48951C12.2954 6.45963 12.2786 6.4325 12.2562 6.41022Z" fill="white"></path></g></g></g><defs><clipPath id="clip0_2056_1224"><rect width="16" height="16" fill="white"></rect></clipPath></defs></svg>