<svg xmlns="http://www.w3.org/2000/svg" width="12" height="14" viewBox="0 0 12 14"><g id="Shield Done"><path id="Shield Done_2" fill-rule="evenodd" clip-rule="evenodd" d="M5.8184 13.609C5.89223 13.6476 5.97478 13.6672 6.05734 13.6666C6.13989 13.6659 6.22177 13.6456 6.29627 13.6064L8.67486 12.3349C9.34937 11.9753 9.87757 11.5733 10.2897 11.1052C11.1857 10.0854 11.6749 8.7838 11.6662 7.44168L11.638 3.01457C11.6353 2.50466 11.3004 2.04966 10.8051 1.88426L6.38016 0.399628C6.11371 0.309412 5.82176 0.311374 5.56001 0.404204L1.15184 1.94179C0.659207 2.11372 0.330339 2.57199 0.333024 3.08256L0.361213 7.5064C0.369938 8.85048 0.875992 10.1462 1.78675 11.1556C2.20287 11.6171 2.73577 12.0133 3.41767 12.3669L5.8184 13.609ZM5.18871 8.40587C5.28805 8.50132 5.41691 8.54839 5.54577 8.54708C5.67463 8.54642 5.80282 8.49805 5.90081 8.40129L8.50021 5.83865C8.69552 5.6458 8.69351 5.33592 8.49619 5.14569C8.29819 4.95545 7.97939 4.95676 7.78409 5.14961L5.53839 7.36316L4.6189 6.47931C4.42091 6.28907 4.10278 6.29103 3.9068 6.48389C3.71149 6.67674 3.71351 6.98661 3.9115 7.17685L5.18871 8.40587Z" fill="#FE6462"></path></g></svg>