<svg xmlns="http://www.w3.org/2000/svg" width="18" height="17" viewBox="0 0 18 17" fill="none"><g id="Group"><path id="Vector" d="M9.96087 6.23659C10.3215 5.84786 10.6709 5.47205 11.0198 5.09512C12.5067 3.48909 13.9942 1.88419 15.4783 0.275911C15.5654 0.181537 15.6536 0.146148 15.7811 0.148395C16.2266 0.155697 16.6726 0.151203 17.1726 0.151203C14.9857 2.51334 12.8319 4.83953 10.6647 7.18032C13.105 10.4418 15.5429 13.7011 18 16.9856C17.9039 16.9901 17.8444 16.9946 17.7854 16.9946C16.1356 16.9951 14.4863 16.9934 12.8364 16.9979C12.6982 16.9985 12.6157 16.9552 12.5337 16.8451C10.9658 14.7425 9.3935 12.6433 7.82174 10.5429C7.78523 10.4941 7.74703 10.4469 7.69928 10.3845C7.35156 10.7586 7.01114 11.1255 6.67072 11.4923C5.02537 13.2691 3.37946 15.0448 1.73804 16.8249C1.62569 16.9468 1.51559 17.0052 1.34482 16.9996C0.916206 16.9867 0.487595 16.9957 0 16.9957C2.34866 14.4589 4.66417 11.958 6.99541 9.44022C4.6872 6.35512 2.38124 3.27226 0.0567363 0.165247C0.138751 0.159068 0.18987 0.151765 0.240989 0.151765C1.90319 0.151203 3.56483 0.152327 5.22704 0.147833C5.35793 0.147271 5.43657 0.18884 5.51409 0.293325C6.93924 2.20438 8.36832 4.11207 9.79684 6.02088C9.84739 6.08773 9.89851 6.15457 9.96087 6.23659ZM2.36776 1.3039C2.42168 1.38255 2.4537 1.43198 2.48853 1.47861C2.6975 1.75836 2.90703 2.03754 3.11656 2.31729C6.45614 6.78148 9.79627 11.2451 13.1336 15.7115C13.2055 15.8076 13.2797 15.8368 13.3937 15.8362C14.0925 15.8318 14.7913 15.834 15.4907 15.834C15.5429 15.834 15.5952 15.834 15.6811 15.834C15.6165 15.7424 15.5738 15.6778 15.5272 15.616C14.4812 14.2179 13.4341 12.8202 12.3882 11.4221C9.89907 8.09653 7.41054 4.771 4.92538 1.44266C4.84674 1.33705 4.76528 1.29997 4.63608 1.3011C3.94345 1.30727 3.25026 1.3039 2.55763 1.3039C2.50538 1.3039 2.45314 1.3039 2.36776 1.3039Z" fill="#252525"></path></g></svg>