<svg xmlns="http://www.w3.org/2000/svg" width="48" height="48" viewBox="0 0 48 48" fill="none"><g id="Frame"><path id="Vector" d="M20.9496 44C20.0163 44 19.1413 43.8 18.3246 43.4C17.5079 43 16.8163 42.4333 16.2496 41.7L5.34961 27.85L6.29961 26.85C6.96628 26.15 7.76628 25.7333 8.69961 25.6C9.63294 25.4667 10.4996 25.65 11.2996 26.15L14.9996 28.4V12C14.9996 11.4333 15.1913 10.9583 15.5746 10.575C15.9579 10.1917 16.4329 10 16.9996 10C17.5663 10 18.0496 10.1917 18.4496 10.575C18.8496 10.9583 19.0496 11.4333 19.0496 12V35.6L14.1996 32.6L19.3996 39.25C19.5996 39.4833 19.8329 39.6667 20.0996 39.8C20.3663 39.9333 20.6496 40 20.9496 40H31.9996C33.0996 40 34.0413 39.6083 34.8246 38.825C35.6079 38.0417 35.9996 37.1 35.9996 36V28C35.9996 27.4333 35.8079 26.9583 35.4246 26.575C35.0413 26.1917 34.5663 26 33.9996 26H23.0496V22H33.9996C35.6663 22 37.0829 22.5833 38.2496 23.75C39.4163 24.9167 39.9996 26.3333 39.9996 28V36C39.9996 38.2 39.2163 40.0833 37.6496 41.65C36.0829 43.2167 34.1996 44 31.9996 44H20.9496ZM8.34961 17C7.91628 16.2667 7.58294 15.475 7.34961 14.625C7.11628 13.775 6.99961 12.9 6.99961 12C6.99961 9.23333 7.97461 6.875 9.92461 4.925C11.8746 2.975 14.2329 2 16.9996 2C19.7663 2 22.1246 2.975 24.0746 4.925C26.0246 6.875 26.9996 9.23333 26.9996 12C26.9996 12.9 26.8829 13.775 26.6496 14.625C26.4163 15.475 26.0829 16.2667 25.6496 17L22.1996 15C22.4663 14.5333 22.6663 14.0583 22.7996 13.575C22.9329 13.0917 22.9996 12.5667 22.9996 12C22.9996 10.3333 22.4163 8.91667 21.2496 7.75C20.0829 6.58333 18.6663 6 16.9996 6C15.3329 6 13.9163 6.58333 12.7496 7.75C11.5829 8.91667 10.9996 10.3333 10.9996 12C10.9996 12.5667 11.0663 13.0917 11.1996 13.575C11.3329 14.0583 11.5329 14.5333 11.7996 15L8.34961 17Z" fill="#FE4040"></path></g></svg>