<svg xmlns="http://www.w3.org/2000/svg" width="36" height="36" viewBox="0 0 36 36" fill="none"><g id="customization 1" clip-path="url(#clip0_8_149)"><g id="_x32_3_Customization"><g id="Group"><path id="Vector" d="M34.6741 15.5559L32.561 15.0322C32.4482 15.0031 32.3646 14.9122 32.3391 14.7958C31.9754 13.1409 31.3243 11.5697 30.4042 10.1221C30.3388 10.0202 30.3388 9.90029 30.3969 9.80206L31.5171 7.93625C31.7608 7.52893 31.6954 7.01241 31.3607 6.67421L29.3276 4.6374C28.993 4.30285 28.4766 4.23739 28.0692 4.48102L26.1961 5.60124C26.0979 5.65939 25.9779 5.65573 25.876 5.59393C24.4285 4.67375 22.8573 4.02272 21.2024 3.659C21.0861 3.63354 20.9952 3.54987 20.9661 3.43716L20.4387 1.32406C20.3259 0.862177 19.915 0.542114 19.4385 0.542114H16.5616C16.0852 0.542114 15.6742 0.862177 15.5614 1.32406L15.0341 3.44082C15.005 3.54987 14.9177 3.63361 14.8013 3.659C13.1282 4.02997 11.557 4.68106 10.124 5.59758C10.0221 5.66304 9.9021 5.6667 9.80394 5.60848L7.93447 4.48095C7.52715 4.23732 7.00705 4.30271 6.67243 4.63733L4.63935 6.67421C4.30473 7.01241 4.23927 7.52893 4.48297 7.93625L5.60678 9.80206C5.665 9.90029 5.66134 10.0202 5.59588 10.1221C4.6757 11.5696 4.02833 13.1409 3.66095 14.7958C3.6355 14.9121 3.55183 15.0031 3.44277 15.0322L1.32601 15.5559C0.867716 15.6723 0.544067 16.0833 0.544067 16.5597V19.4366C0.544067 19.9131 0.867786 20.3241 1.32601 20.4368L3.43911 20.9642C3.5519 20.9933 3.6355 21.0806 3.66095 21.2006C4.05737 23.0228 4.70481 24.5976 5.57767 25.8779C5.65037 25.9834 5.65768 26.1106 5.59588 26.2124L4.48297 28.0673C4.23927 28.471 4.30473 28.9911 4.63935 29.3257L6.67243 31.3625C7.00705 31.6971 7.52715 31.7626 7.93447 31.5189L9.81118 30.3914C9.90576 30.3332 10.0294 30.3369 10.1312 30.4023C11.5642 31.3152 13.1318 31.9662 14.794 32.3336C14.9103 32.359 15.0012 32.4463 15.0268 32.5554L15.5614 34.6758C15.6742 35.1377 16.0888 35.4578 16.5616 35.4578H19.4422C19.915 35.4578 20.326 35.1377 20.4424 34.6758L20.9734 32.5517C20.9988 32.4463 21.0897 32.359 21.2062 32.3336C22.8646 31.9662 24.4359 31.3152 25.8762 30.4023C25.978 30.3368 26.098 30.3332 26.1962 30.3914L28.0656 31.5189C28.473 31.7626 28.9931 31.6972 29.3277 31.3625L31.3644 29.3257C31.6954 28.9911 31.7608 28.471 31.5172 28.0673L30.3933 26.1906C30.3351 26.096 30.3388 25.9724 30.4042 25.8742C31.3171 24.4339 31.9681 22.8627 32.3391 21.1969C32.3646 21.0805 32.4482 20.9933 32.5573 20.9642L34.6741 20.4368C35.136 20.324 35.4561 19.913 35.4561 19.4366V16.5597C35.4561 16.0833 35.136 15.6723 34.6741 15.5559ZM34.7287 19.4366C34.7287 19.5749 34.6341 19.6985 34.4995 19.7312L32.3828 20.2587C32.0009 20.3532 31.7135 20.6514 31.6263 21.0406C31.2771 22.6227 30.6588 24.1175 29.7896 25.4851C29.5786 25.816 29.5713 26.2306 29.7714 26.5653L30.8916 28.4383C30.9643 28.5583 30.9461 28.7111 30.8479 28.8093L28.8148 30.8497C28.7167 30.9479 28.5639 30.9661 28.4439 30.8934L26.5708 29.7695C26.2362 29.5658 25.8216 29.5732 25.4869 29.7878C24.1194 30.657 22.6246 31.2753 21.0461 31.6245C20.6605 31.7117 20.3623 31.9991 20.2677 32.3773L19.7367 34.5014C19.7004 34.6359 19.5803 34.7305 19.4421 34.7305H16.5615C16.4197 34.7305 16.2997 34.6359 16.2669 34.5014L15.7323 32.3773C15.6377 31.9991 15.3394 31.7117 14.9539 31.6245C13.3755 31.2753 11.8842 30.657 10.5204 29.7878C10.1821 29.5732 9.76745 29.5695 9.43649 29.7695L7.55978 30.8934C7.43975 30.9661 7.28697 30.9479 7.18881 30.8497L5.15207 28.8093C5.05391 28.7111 5.0357 28.5583 5.1084 28.4383L6.21772 26.5834C6.425 26.2415 6.40686 25.8015 6.17772 25.4668C5.35576 24.2665 4.74833 22.779 4.37378 21.0441C4.29011 20.6549 3.99915 20.3531 3.61729 20.2585L1.50418 19.7311C1.36595 19.6984 1.27138 19.5747 1.27138 19.4365V16.5596C1.27138 16.4178 1.36595 16.2977 1.50418 16.265L3.61729 15.7376C3.99915 15.643 4.28652 15.3412 4.37378 14.952C4.71929 13.3808 5.33755 11.886 6.21048 10.5147C6.42142 10.1801 6.42866 9.76184 6.22869 9.42729L5.10847 7.56141C5.03577 7.44139 5.05391 7.2886 5.15214 7.19044L7.18888 5.15011C7.28704 5.05189 7.43983 5.03368 7.55985 5.10645L9.42932 6.23033C9.76393 6.43395 10.1822 6.42671 10.5168 6.21211C11.877 5.33925 13.3719 4.72093 14.9576 4.37175C15.3468 4.2845 15.645 3.9972 15.7396 3.61526L16.2669 1.4985C16.2997 1.36386 16.4197 1.26936 16.5615 1.26936H19.4384C19.5803 1.26936 19.7003 1.36386 19.7331 1.4985L20.2604 3.61526C20.355 3.99354 20.6568 4.2845 21.046 4.3681C22.6172 4.71727 24.112 5.3356 25.4869 6.20846C25.8215 6.41947 26.2361 6.42671 26.5707 6.22667L28.4402 5.10645C28.5602 5.03375 28.713 5.05196 28.8148 5.15011L30.8479 7.19044C30.9461 7.28867 30.9643 7.44139 30.8916 7.56141L29.7714 9.42729C29.5713 9.76184 29.5786 10.1801 29.7896 10.5112C30.6624 11.886 31.2808 13.3808 31.6299 14.952C31.7136 15.3411 32.0046 15.643 32.3828 15.7376L34.4995 16.265C34.6341 16.2977 34.7287 16.4178 34.7287 16.5596V19.4366Z" fill="white"></path><path id="Vector_2" d="M18.0018 7.00151C11.9389 7.00151 7.00342 11.9334 7.00342 17.9963C7.00342 24.063 11.9389 28.9948 18.0018 28.9948C24.0648 28.9948 28.9966 24.063 28.9966 17.9963C28.9966 11.9334 24.0648 7.00151 18.0018 7.00151ZM13.5683 21.6734V24.6485C13.5683 24.8485 13.4046 25.0122 13.2046 25.0122C13.0009 25.0122 12.8408 24.8486 12.8408 24.6485V21.6734C11.7424 21.4952 10.8987 20.5459 10.8987 19.3966C10.8987 18.251 11.7424 17.298 12.8408 17.1235V11.3515C12.8408 11.1514 13.0009 10.9877 13.2046 10.9877C13.4046 10.9877 13.5683 11.1514 13.5683 11.3515V17.1235C14.6667 17.2981 15.5105 18.251 15.5105 19.3966C15.5105 20.5459 14.6666 21.4952 13.5683 21.6734ZM18.3656 18.8765V24.6485C18.3656 24.8485 18.2019 25.0122 18.0018 25.0122C17.7981 25.0122 17.6381 24.8486 17.6381 24.6485V18.8765C16.5361 18.7019 15.6959 17.749 15.6959 16.6034C15.6959 15.4541 16.5361 14.5048 17.6381 14.3303V11.3515C17.6381 11.1514 17.7981 10.9877 18.0018 10.9877C18.2019 10.9877 18.3656 11.1514 18.3656 11.3515V14.3303C19.464 14.5048 20.3077 15.4541 20.3077 16.6034C20.3077 17.7491 19.4639 18.702 18.3656 18.8765ZM23.1628 21.2006V24.6485C23.1628 24.8485 22.9991 25.0122 22.799 25.0122C22.5954 25.0122 22.4353 24.8486 22.4353 24.6485V21.2006C21.3333 21.026 20.4932 20.0731 20.4932 18.9274C20.4932 17.7782 21.3333 16.8288 22.4353 16.6543V11.3515C22.4353 11.1514 22.5954 10.9877 22.799 10.9877C22.9991 10.9877 23.1628 11.1514 23.1628 11.3515V16.6543C24.2612 16.8289 25.1049 17.7782 25.1049 18.9274C25.105 20.0731 24.2612 21.026 23.1628 21.2006Z" fill="white"></path><path id="Vector_3" d="M14.7832 19.3966C14.7832 20.2696 14.0739 20.9751 13.2047 20.9751C12.3318 20.9751 11.6262 20.2696 11.6262 19.3966C11.6262 18.5273 12.3318 17.8182 13.2047 17.8182C14.0739 17.8182 14.7832 18.5273 14.7832 19.3966Z" fill="white"></path><path id="Vector_4" d="M19.5804 16.6034C19.5804 17.4726 18.8712 18.1818 18.0019 18.1818C17.129 18.1818 16.4235 17.4726 16.4235 16.6034C16.4235 15.7341 17.129 15.0249 18.0019 15.0249C18.8712 15.0249 19.5804 15.7341 19.5804 16.6034Z" fill="white"></path><path id="Vector_5" d="M24.3777 18.9274C24.3777 19.7967 23.6684 20.5059 22.7991 20.5059C21.9262 20.5059 21.2207 19.7968 21.2207 18.9274C21.2207 18.0582 21.9263 17.349 22.7991 17.349C23.6685 17.349 24.3777 18.0582 24.3777 18.9274Z" fill="white"></path></g></g></g><defs><clipPath id="clip0_8_149"><rect width="36" height="36" fill="white"></rect></clipPath></defs></svg>