<svg xmlns="http://www.w3.org/2000/svg" width="48" height="48" viewBox="0 0 48 48" fill="none"><g id="Frame"><path id="Vector" d="M24 36C20.7667 36 18 34.9 15.7 32.7C13.4 30.5 12.1667 27.8 12 24.6L16.2 25.85C16.6333 27.65 17.5667 29.125 19 30.275C20.4333 31.425 22.1 32 24 32C26.2 32 28.0833 31.2167 29.65 29.65C31.2167 28.0833 32 26.2 32 24C32 22.1 31.425 20.4333 30.275 19C29.125 17.5667 27.65 16.6333 25.85 16.2L24.6 12C27.8 12.1667 30.5 13.4 32.7 15.7C34.9 18 36 20.7667 36 24C36 27.3333 34.8333 30.1667 32.5 32.5C30.1667 34.8333 27.3333 36 24 36ZM24 44C21.2333 44 18.6333 43.475 16.2 42.425C13.7667 41.375 11.65 39.95 9.85 38.15C8.05 36.35 6.625 34.2333 5.575 31.8C4.525 29.3667 4 26.7667 4 24V23.1C4 22.8 4.03333 22.5 4.1 22.2L8 23.4V24C8 28.4667 9.55 32.25 12.65 35.35C15.75 38.45 19.5333 40 24 40C28.4667 40 32.25 38.45 35.35 35.35C38.45 32.25 40 28.4667 40 24C40 19.5333 38.45 15.75 35.35 12.65C32.25 9.55 28.4667 8 24 8H23.4L22.2 4.1C22.5 4.03333 22.8 4 23.1 4H24C26.7667 4 29.3667 4.525 31.8 5.575C34.2333 6.625 36.35 8.05 38.15 9.85C39.95 11.65 41.375 13.7667 42.425 16.2C43.475 18.6333 44 21.2333 44 24C44 26.7667 43.475 29.3667 42.425 31.8C41.375 34.2333 39.95 36.35 38.15 38.15C36.35 39.95 34.2333 41.375 31.8 42.425C29.3667 43.475 26.7667 44 24 44ZM21.05 25L12.5 16.45L10 24L4 4L24 10L16.45 12.5L25 21.05L21.05 25Z" fill="#FE4040"></path></g></svg>