<svg xmlns="http://www.w3.org/2000/svg" width="36" height="36" viewBox="0 0 36 36" fill="none"><g><path id="Vector" fill-rule="evenodd" clip-rule="evenodd" d="M32.4092 24.0448C32.4134 24.0166 32.4155 23.9892 32.4155 23.9611V12.0361C32.4155 12.008 32.4134 11.9805 32.4092 11.9545C33.248 11.7056 33.8605 10.9301 33.8605 10.0111C33.8605 8.89313 32.9534 7.98609 31.8355 7.98609C31.2933 7.98609 30.8033 8.19914 30.4383 8.54438C30.4166 8.5282 30.3948 8.51274 30.3687 8.49867L25.2387 5.535L25.2085 5.51742L20.0441 2.53547C20.0201 2.52141 19.9941 2.50945 19.9702 2.49961C20.0061 2.34633 20.0258 2.18883 20.0258 2.025C20.0258 0.904922 19.1187 0 18.0008 0C16.8807 0 15.9758 0.904922 15.9758 2.025C15.9758 2.18813 15.9941 2.34563 16.0313 2.49961C16.0053 2.50945 15.9793 2.52141 15.9554 2.53547L10.7909 5.51742H10.793L5.6321 8.49867C5.60608 8.51274 5.58429 8.52891 5.56249 8.54438C5.19968 8.19984 4.70749 7.98609 4.16538 7.98609C3.04741 7.98609 2.14038 8.89313 2.14038 10.0111C2.14038 10.9301 2.7521 11.7049 3.59163 11.9545C3.58741 11.9805 3.5853 12.0087 3.5853 12.0361V23.9611C3.5853 23.9892 3.58741 24.0166 3.59163 24.0448C2.7528 24.2923 2.14038 25.0671 2.14038 25.9861C2.14038 27.1041 3.04741 28.0111 4.16538 28.0111C4.70749 28.0111 5.19968 27.8002 5.56249 27.4528C5.58429 27.4704 5.60608 27.4866 5.6321 27.5006L10.7621 30.4622C10.7719 30.4678 10.7818 30.4741 10.7923 30.4798L15.9568 33.4617C15.9807 33.4758 16.0067 33.4877 16.0327 33.4997C15.9948 33.6509 15.9772 33.8105 15.9772 33.9743C15.9772 35.0923 16.8821 35.9993 18.0022 35.9993C19.1201 35.9993 20.0272 35.0923 20.0272 33.9743C20.0272 33.8112 20.0075 33.6516 19.9716 33.4997C19.9955 33.4877 20.0216 33.4758 20.0455 33.4617L25.2099 30.4798L30.3701 27.4999C30.3962 27.4859 30.418 27.4697 30.4398 27.4521C30.8047 27.7988 31.2948 28.0104 31.8369 28.0104C32.9548 28.0104 33.8619 27.1034 33.8619 25.9854C33.8605 25.0678 33.248 24.2923 32.4092 24.0448ZM31.261 24.0448C30.9481 24.1362 30.669 24.3021 30.4398 24.5194C30.418 24.5018 30.3962 24.4877 30.3701 24.4737L24.7894 21.2505V21.948C24.7894 22.1576 24.7655 22.3566 24.7177 22.5457L29.7901 25.4756C29.8161 25.4897 29.84 25.5016 29.866 25.5115C29.8301 25.6627 29.8105 25.8223 29.8105 25.9861C29.8105 26.1492 29.8301 26.3088 29.866 26.4621C29.8421 26.472 29.8161 26.4839 29.7922 26.498L24.6298 29.4778L24.6277 29.4799V29.4778L19.4633 32.4598C19.4394 32.4738 19.4155 32.4893 19.3958 32.5055C19.1666 32.2882 18.8853 32.123 18.5745 32.0309C18.5787 32.0048 18.5809 31.9767 18.5809 31.9493V25.7843C18.3854 25.792 18.192 25.7963 18.0008 25.7963C17.8095 25.7963 17.6141 25.792 17.4186 25.7843V31.9493C17.4186 31.9774 17.4207 32.0048 17.4249 32.0309C17.1141 32.1223 16.835 32.2882 16.6058 32.5055C16.584 32.4893 16.5601 32.4738 16.5362 32.4598L11.3738 29.4778C11.3619 29.4722 11.352 29.4659 11.3422 29.4616L6.20796 26.498C6.18405 26.4839 6.16015 26.472 6.13413 26.4621C6.1721 26.3088 6.18968 26.1492 6.18968 25.9861C6.18968 25.823 6.1714 25.6634 6.13413 25.5115C6.16015 25.5016 6.18616 25.4897 6.21007 25.4756L11.2824 22.5457C11.2367 22.3566 11.2107 22.1569 11.2107 21.948V21.2505L5.62999 24.4737C5.60608 24.4877 5.58218 24.5018 5.56038 24.5194C5.33116 24.3021 5.05202 24.1369 4.74124 24.0448C4.74546 24.0166 4.74757 23.9892 4.74757 23.9611V12.0361C4.74757 12.008 4.74546 11.9805 4.74124 11.9545C5.05202 11.861 5.33116 11.6972 5.56038 11.4785C5.58218 11.4961 5.60608 11.5123 5.62999 11.5263L11.2107 14.7473V14.052C11.2107 13.8424 11.2367 13.6434 11.2824 13.4522L6.21007 10.5244C6.18616 10.5103 6.16015 10.4963 6.13413 10.4864C6.1721 10.3352 6.18968 10.1756 6.18968 10.0118C6.18968 9.84867 6.1714 9.68906 6.13413 9.53578C6.16015 9.52594 6.18405 9.51399 6.20796 9.50203L11.3724 6.52008V6.51797L11.3745 6.52008L16.5369 3.53813C16.5608 3.52406 16.5847 3.50859 16.6065 3.49242C16.8336 3.70969 17.1148 3.87492 17.4256 3.96703C17.4214 3.99516 17.4193 4.02258 17.4193 4.0507V10.2157C17.6148 10.2059 17.8102 10.2016 18.0015 10.2016C18.1927 10.2016 18.3861 10.2059 18.5816 10.2157V4.05C18.5816 4.02188 18.5794 3.99445 18.5752 3.96633C18.886 3.87492 19.1673 3.70898 19.3965 3.49172C19.4162 3.50789 19.4401 3.52336 19.464 3.53742L24.6284 6.51938C24.6383 6.525 24.6481 6.53133 24.6601 6.53695L29.7922 9.50063C29.8161 9.51258 29.8421 9.52453 29.866 9.53438C29.8301 9.68766 29.8105 9.84727 29.8105 10.0104C29.8105 10.1735 29.8301 10.3331 29.866 10.485C29.84 10.4948 29.8161 10.5089 29.7901 10.523L24.7177 13.4508C24.7655 13.642 24.7894 13.8417 24.7894 14.0505V14.7459L30.3701 11.5249C30.3962 11.5109 30.418 11.4947 30.4398 11.4771C30.669 11.6965 30.9481 11.8596 31.261 11.9531C31.2568 11.9791 31.2547 12.0073 31.2547 12.0347V23.9597C31.2554 23.9892 31.2575 24.0173 31.261 24.0448ZM22.4818 20.9658C22.8826 20.7724 23.2812 20.5313 23.63 20.2423V21.948C23.63 23.433 21.1086 24.6347 18.0015 24.6347C14.8923 24.6347 12.373 23.433 12.373 21.948V20.2423C12.7217 20.5313 13.1183 20.7724 13.5212 20.9658C14.8726 21.6113 16.513 21.8665 18.0015 21.8665C19.49 21.8665 21.1283 21.6113 22.4818 20.9658ZM18.0008 17.9002C20.3429 17.9002 22.4073 17.2287 23.6293 16.2042V18.0162C23.6293 19.5012 21.1079 20.7049 18.0008 20.7049C14.8916 20.7049 12.3723 19.5012 12.3723 18.0162V16.2042C13.5922 17.2287 15.6573 17.9002 18.0008 17.9002ZM23.6293 14.052C23.6293 15.5327 21.1001 16.7386 18.0008 16.7386C14.8993 16.7386 12.3723 15.5327 12.3723 14.052C12.3723 12.5712 14.8993 11.3632 18.0008 11.3632C21.1001 11.3632 23.6293 12.5705 23.6293 14.052Z" fill="white"></path></g></svg>