<svg xmlns="http://www.w3.org/2000/svg" width="36" height="36" viewBox="0 0 36 36" fill="none"><g id="app 1" clip-path="url(#clip0_8_167)"><g id="Group"><g id="Icon"><g id="Group_2"><path id="Vector" fill-rule="evenodd" clip-rule="evenodd" d="M19.6247 2.68048C18.6082 2.11894 17.3738 2.11894 16.3573 2.68048C14.1088 3.92524 8.88002 6.81881 5.48217 8.69908C4.46409 9.26221 3.8087 10.3105 3.74666 11.4718C3.68383 12.6338 4.22389 13.7449 5.17675 14.4131C8.4696 16.726 13.6555 20.3672 16.0519 22.051C17.2155 22.8679 18.7665 22.8679 19.9302 22.051C22.3266 20.3672 27.5125 16.726 30.8053 14.4131C31.7582 13.7449 32.2982 12.6338 32.2354 11.4718C32.1734 10.3105 31.518 9.26221 30.4999 8.69908C27.1021 6.81881 21.8733 3.92524 19.6247 2.68048Z" fill="white"></path></g><g id="Group_3"><path id="Vector_2" fill-rule="evenodd" clip-rule="evenodd" d="M4.40931 24.9461C4.40931 24.9461 12.7767 30.8224 16.052 33.1226C17.2156 33.9394 18.7666 33.9394 19.9303 33.1226C23.2056 30.8224 31.573 24.9461 31.573 24.9461C32.0812 24.589 32.2037 23.8875 31.8466 23.3793C31.4902 22.8718 30.7879 22.7485 30.2805 23.1049C30.2805 23.1049 21.9131 28.9811 18.6378 31.2813C18.2496 31.5533 17.7326 31.5533 17.3445 31.2813L5.7018 23.1048C5.19435 22.7485 4.49203 22.8718 4.1357 23.3793C3.77858 23.8875 3.90107 24.589 4.40931 24.9461Z" fill="white"></path></g><g id="Group_4"><path id="Vector_3" fill-rule="evenodd" clip-rule="evenodd" d="M4.40931 19.3313C4.40931 19.3313 12.7767 25.2075 16.052 27.5077C17.2156 28.3246 18.7666 28.3246 19.9303 27.5077C23.2056 25.2075 31.573 19.3313 31.573 19.3313C32.0812 18.9741 32.2037 18.2726 31.8466 17.7644C31.4902 17.2569 30.7879 17.1337 30.2805 17.49C30.2805 17.49 21.9131 23.3662 18.6378 25.6664C18.2496 25.9385 17.7326 25.9385 17.3445 25.6664L5.7018 17.49C5.19435 17.1337 4.49203 17.2569 4.1357 17.7644C3.77858 18.2726 3.90107 18.9742 4.40931 19.3313Z" fill="white"></path></g></g></g></g><defs><clipPath id="clip0_8_167"><rect width="36" height="36" fill="white"></rect></clipPath></defs></svg>