<svg xmlns="http://www.w3.org/2000/svg" width="48" height="48" viewBox="0 0 48 48" fill="none"><g id="Frame"><path id="Vector" d="M18 26H38L31.1 17L26.5 23L23.4 19L18 26ZM6 42C4.9 42 3.95833 41.6083 3.175 40.825C2.39167 40.0417 2 39.1 2 38V12H6V38H40V42H6ZM14 34C12.9 34 11.9583 33.6083 11.175 32.825C10.3917 32.0417 10 31.1 10 30V8C10 6.9 10.3917 5.95833 11.175 5.175C11.9583 4.39167 12.9 4 14 4H24L28 8H42C43.1 8 44.0417 8.39167 44.825 9.175C45.6083 9.95833 46 10.9 46 12V30C46 31.1 45.6083 32.0417 44.825 32.825C44.0417 33.6083 43.1 34 42 34H14ZM14 30H42V12H26.35L22.35 8H14V30Z" fill="#FE4040"></path></g></svg>