<svg xmlns="http://www.w3.org/2000/svg" width="48" height="48" viewBox="0 0 48 48" fill="none"><g id="Frame"><path id="Vector" d="M23.8 44L32.9 20H37.1L46.2 44H42L39.85 37.9H30.15L28 44H23.8ZM8 38L5.2 35.2L15.3 25.1C14.1333 23.9333 13.075 22.6 12.125 21.1C11.175 19.6 10.3 17.9 9.5 16H13.7C14.3667 17.3 15.0333 18.4333 15.7 19.4C16.3667 20.3667 17.1667 21.3333 18.1 22.3C19.2 21.2 20.3417 19.6583 21.525 17.675C22.7083 15.6917 23.6 13.8 24.2 12H2V8H16V4H20V8H34V12H28.2C27.5 14.4 26.45 16.8667 25.05 19.4C23.65 21.9333 22.2667 23.8667 20.9 25.2L25.7 30.1L24.2 34.2L18.1 27.95L8 38ZM31.4 34.4H38.6L35 24.2L31.4 34.4Z" fill="#FE4040"></path></g></svg>