<svg xmlns="http://www.w3.org/2000/svg" width="36" height="36" viewBox="0 0 36 36" fill="none"><g id="sales 1"><path id="Vector" d="M9.20162 15.7597V18.9818C9.20162 19.273 9.43766 19.5091 9.72896 19.5091H13.3666C13.6579 19.5091 13.8939 19.273 13.8939 18.9818V15.38C14.5423 15.0768 15.1349 14.6739 15.6521 14.1909V18.9818C15.6521 19.273 15.8881 19.5091 16.1794 19.5091H19.817C20.1084 19.5091 20.3444 19.273 20.3444 18.9818V10.3036C20.3444 10.0124 20.1084 9.77625 19.817 9.77625H17.7828C17.7963 9.60194 17.8034 9.42588 17.8034 9.2482C17.8034 8.3617 17.6317 7.51472 17.3203 6.73819L24.8433 2.39484L24.4519 3.89503C24.3784 4.17684 24.5472 4.46484 24.829 4.53839C24.8736 4.55006 24.9184 4.55562 24.9625 4.55562C25.1967 4.55562 25.4105 4.39847 25.4724 4.16123L26.1822 1.44056C26.2557 1.15875 26.0869 0.870749 25.8051 0.797202L23.0845 0.0873976C22.8027 0.013921 22.5146 0.182741 22.4411 0.464554C22.3676 0.746366 22.5364 1.03444 22.8182 1.10798L24.2954 1.49337L16.8511 5.79122C15.6695 3.81192 13.5063 2.48323 11.0384 2.48323C7.30818 2.48323 4.27342 5.51798 4.27342 9.2482C4.27342 12.3421 6.36107 14.9573 9.20162 15.7597ZM11.0384 3.53798C14.1871 3.53798 16.7487 6.09961 16.7487 9.24827C16.7487 12.3969 14.1871 14.9585 11.0384 14.9585C7.88973 14.9585 5.3281 12.3969 5.3281 9.24827C5.3281 6.09968 7.88966 3.53798 11.0384 3.53798ZM34.6005 4.92687C34.4413 5.25368 34.1165 5.45674 33.7526 5.45674H33.2453V18.9818C33.2453 19.273 33.0092 19.5091 32.7179 19.5091H29.0803C28.789 19.5091 28.553 19.273 28.553 18.9818V5.45667H28.0456C27.6816 5.45667 27.3568 5.25368 27.1978 4.92687C27.0387 4.60005 27.0794 4.2191 27.304 3.93272L29.831 0.710929C30.0899 0.380741 30.4792 0.19139 30.8989 0.191319C31.3188 0.191319 31.7081 0.380671 31.9671 0.710858L34.494 3.93272C34.7188 4.2191 34.7595 4.59998 34.6005 4.92687ZM22.6298 7.08919H26.2674C26.5588 7.08919 26.7948 7.3253 26.7948 7.61653V18.9818C26.7948 19.273 26.5588 19.5091 26.2674 19.5091H22.6298C22.3385 19.5091 22.1025 19.273 22.1025 18.9818V7.61653C22.1025 7.3253 22.3386 7.08919 22.6298 7.08919ZM32.4767 21.9956C31.8073 21.8161 31.1098 21.9071 30.5128 22.2517L24.4352 25.7608C24.4573 25.4409 24.4272 25.1165 24.3419 24.7984C23.9215 23.2296 22.3029 22.2954 20.7342 22.7155L18.2647 23.3773C17.3098 23.6332 16.429 23.5173 15.5726 23.0229L12.2805 21.1222C10.9824 20.3728 9.67117 20.865 8.15277 21.435C7.27196 21.7656 6.28675 22.1349 5.12047 22.3524L5.04334 22.0646C5.04334 22.0646 5.04334 22.0646 5.04334 22.0646C4.90363 21.5434 4.36567 21.233 3.845 21.3727L2.0289 21.8593C1.7769 21.9268 1.56603 22.0889 1.43525 22.3156C1.3044 22.5423 1.2696 22.8059 1.3371 23.0577L4.59172 35.2044C4.70872 35.6411 5.10507 35.9298 5.53714 35.9298C5.62068 35.9298 5.70561 35.9191 5.79013 35.8964L7.60623 35.4098C8.12732 35.2702 8.43767 34.7325 8.29803 34.2115L8.2825 34.1535C10.9951 33.5403 12.6802 34.0204 14.9611 34.6709C15.3691 34.7872 15.791 34.9076 16.2415 35.0283C16.6263 35.1314 17.006 35.1828 17.3796 35.1828C18.1044 35.1828 18.8059 34.989 19.4753 34.6025L33.1017 26.7351C33.6984 26.3907 34.1258 25.8324 34.3051 25.1629C34.4844 24.4934 34.3935 23.7961 34.0489 23.1993C33.7044 22.6025 33.1461 22.175 32.4767 21.9956ZM33.2863 24.89C33.1799 25.2873 32.9272 25.6181 32.5744 25.8217L18.948 33.6892C18.1738 34.1361 17.3779 34.241 16.5146 34.0095C16.0722 33.891 15.6544 33.7719 15.2505 33.6566C12.8951 32.985 11.0079 32.448 8.00954 33.1343L5.39434 23.3742C6.61103 23.1398 7.61966 22.7616 8.52346 22.4224C10.0765 21.8395 10.9254 21.5577 11.7533 22.0356L15.0454 23.9363C16.141 24.5687 17.3161 24.7233 18.5379 24.396L21.0073 23.7343C22.0149 23.4644 23.0535 24.0643 23.3233 25.0714C23.4533 25.5567 23.3853 26.0658 23.1318 26.5048C22.8783 26.9438 22.4714 27.2573 21.9861 27.3873L18.3749 28.3549C17.7516 28.5219 17.1424 28.5276 16.5645 28.3717C16.2834 28.2959 15.9939 28.4622 15.918 28.7435C15.8421 29.0246 16.0086 29.3141 16.2898 29.39C16.6597 29.4898 17.0377 29.5397 17.4212 29.5397C17.825 29.5397 18.2349 29.4844 18.648 29.3737L22.2591 28.4061C22.9099 28.2317 23.4692 27.8466 23.8641 27.3085L31.0403 23.1652C31.3932 22.9615 31.8065 22.9079 32.2037 23.0143C32.6009 23.1209 32.9319 23.3738 33.1356 23.7265C33.3392 24.0794 33.3927 24.4927 33.2863 24.89ZM11.0384 14.1477C13.74 14.1477 15.9379 11.9498 15.9379 9.2482C15.9379 6.54659 13.74 4.34869 11.0384 4.34869C8.33678 4.34869 6.13888 6.54659 6.13888 9.2482C6.13888 11.9498 8.33678 14.1477 11.0384 14.1477ZM10.511 6.66049V6.4113C10.511 6.12007 10.747 5.88396 11.0383 5.88396C11.3296 5.88396 11.5657 6.12007 11.5657 6.4113V6.69178C12.1823 6.90968 12.6253 7.4984 12.6253 8.18866C12.6253 8.4799 12.3892 8.71601 12.0979 8.71601C11.8066 8.71601 11.5706 8.4799 11.5706 8.18866C11.5706 7.89518 11.3318 7.6564 11.0383 7.6564H10.9396C10.6461 7.6564 10.4074 7.89518 10.4074 8.18866C10.4074 8.48215 10.6462 8.72093 10.9396 8.72093H11.1372C12.0122 8.72093 12.7241 9.43284 12.7241 10.3079C12.7241 11.0345 12.2333 11.6486 11.5657 11.8361V12.0852C11.5657 12.3765 11.3296 12.6126 11.0383 12.6126C10.747 12.6126 10.511 12.3765 10.511 12.0852V11.8048C9.89434 11.5869 9.45144 10.9981 9.45144 10.3079C9.45144 10.0166 9.68748 9.78054 9.97878 9.78054C10.2701 9.78054 10.5061 10.0166 10.5061 10.3079C10.5061 10.6014 10.7449 10.8401 11.0383 10.8401H11.1371C11.4306 10.8401 11.6693 10.6014 11.6693 10.3079C11.6693 10.0144 11.4305 9.77562 11.1371 9.77562H10.9395C10.0646 9.77562 9.35265 9.0637 9.35265 8.18866C9.35265 7.46205 9.8435 6.84794 10.511 6.66049Z" fill="white"></path></g></svg>