<svg xmlns="http://www.w3.org/2000/svg" width="48" height="48" viewBox="0 0 48 48" fill="none"><g id="Frame"><path id="Vector" d="M12 44C10.3333 44 8.91667 43.4167 7.75 42.25C6.58333 41.0833 6 39.6667 6 38V32H12V4L15 7L18 4L21 7L24 4L27 7L30 4L33 7L36 4L39 7L42 4V38C42 39.6667 41.4167 41.0833 40.25 42.25C39.0833 43.4167 37.6667 44 36 44H12ZM36 40C36.5667 40 37.0417 39.8083 37.425 39.425C37.8083 39.0417 38 38.5667 38 38V10H16V32H34V38C34 38.5667 34.1917 39.0417 34.575 39.425C34.9583 39.8083 35.4333 40 36 40ZM18 18V14H30V18H18ZM18 24V20H30V24H18ZM34 18C33.4333 18 32.9583 17.8083 32.575 17.425C32.1917 17.0417 32 16.5667 32 16C32 15.4333 32.1917 14.9583 32.575 14.575C32.9583 14.1917 33.4333 14 34 14C34.5667 14 35.0417 14.1917 35.425 14.575C35.8083 14.9583 36 15.4333 36 16C36 16.5667 35.8083 17.0417 35.425 17.425C35.0417 17.8083 34.5667 18 34 18ZM34 24C33.4333 24 32.9583 23.8083 32.575 23.425C32.1917 23.0417 32 22.5667 32 22C32 21.4333 32.1917 20.9583 32.575 20.575C32.9583 20.1917 33.4333 20 34 20C34.5667 20 35.0417 20.1917 35.425 20.575C35.8083 20.9583 36 21.4333 36 22C36 22.5667 35.8083 23.0417 35.425 23.425C35.0417 23.8083 34.5667 24 34 24ZM12 40H30V36H10V38C10 38.5667 10.1917 39.0417 10.575 39.425C10.9583 39.8083 11.4333 40 12 40Z" fill="#FE4040"></path></g></svg>