<svg xmlns="http://www.w3.org/2000/svg" width="48" height="48" viewBox="0 0 48 48" fill="none"><g id="Frame"><path id="Vector" d="M18.5004 44L17.7004 37.6C17.2671 37.4333 16.8587 37.2333 16.4754 37C16.0921 36.7667 15.7171 36.5167 15.3504 36.25L9.40039 38.75L3.90039 29.25L9.05039 25.35C9.01706 25.1167 9.00039 24.8917 9.00039 24.675V23.325C9.00039 23.1083 9.01706 22.8833 9.05039 22.65L3.90039 18.75L9.40039 9.25L15.3504 11.75C15.7171 11.4833 16.1004 11.2333 16.5004 11C16.9004 10.7667 17.3004 10.5667 17.7004 10.4L18.5004 4H29.5004L30.3004 10.4C30.7337 10.5667 31.1421 10.7667 31.5254 11C31.9087 11.2333 32.2837 11.4833 32.6504 11.75L38.6004 9.25L44.1004 18.75L40.4004 21.55C39.6671 21.1833 38.9171 20.875 38.1504 20.625C37.3837 20.375 36.5671 20.2 35.7004 20.1L38.8504 17.7L36.9004 14.3L31.9504 16.4C31.2171 15.6333 30.4087 14.9917 29.5254 14.475C28.6421 13.9583 27.6837 13.5667 26.6504 13.3L26.0004 8H22.0504L21.3504 13.3C20.3171 13.5667 19.3587 13.9583 18.4754 14.475C17.5921 14.9917 16.7837 15.6167 16.0504 16.35L11.1004 14.3L9.15039 17.7L13.4504 20.9C13.2837 21.4 13.1671 21.9 13.1004 22.4C13.0337 22.9 13.0004 23.4333 13.0004 24C13.0004 24.5333 13.0337 25.05 13.1004 25.55C13.1671 26.05 13.2837 26.55 13.4504 27.05L9.15039 30.3L11.1004 33.7L16.0504 31.6C16.6171 32.1667 17.2254 32.675 17.8754 33.125C18.5254 33.575 19.2337 33.95 20.0004 34.25C20.0337 36.15 20.4254 37.9333 21.1754 39.6C21.9254 41.2667 22.9337 42.7333 24.2004 44H18.5004ZM20.5504 30.05C20.7504 29.3833 20.9921 28.7417 21.2754 28.125C21.5587 27.5083 21.8837 26.9167 22.2504 26.35C21.8837 26.0833 21.6004 25.7417 21.4004 25.325C21.2004 24.9083 21.1004 24.4667 21.1004 24C21.1004 23.1667 21.3921 22.4583 21.9754 21.875C22.5587 21.2917 23.2671 21 24.1004 21C24.5671 21 25.0171 21.1083 25.4504 21.325C25.8837 21.5417 26.2337 21.8333 26.5004 22.2C27.0671 21.8333 27.6504 21.5083 28.2504 21.225C28.8504 20.9417 29.4837 20.7167 30.1504 20.55C29.5504 19.4833 28.7171 18.625 27.6504 17.975C26.5837 17.325 25.4004 17 24.1004 17C22.1337 17 20.4754 17.6833 19.1254 19.05C17.7754 20.4167 17.1004 22.0667 17.1004 24C17.1004 25.2667 17.4087 26.4417 18.0254 27.525C18.6421 28.6083 19.4837 29.45 20.5504 30.05ZM34.0004 40L40.0004 34L34.0004 28L32.6004 29.4L36.2004 33H28.0004V35H36.1504L32.6004 38.6L34.0004 40ZM34.0004 44C31.2337 44 28.8754 43.025 26.9254 41.075C24.9754 39.125 24.0004 36.7667 24.0004 34C24.0004 31.2333 24.9754 28.875 26.9254 26.925C28.8754 24.975 31.2337 24 34.0004 24C36.7671 24 39.1254 24.975 41.0754 26.925C43.0254 28.875 44.0004 31.2333 44.0004 34C44.0004 36.7667 43.0254 39.125 41.0754 41.075C39.1254 43.025 36.7671 44 34.0004 44Z" fill="#FE4040"></path></g></svg>