<svg xmlns="http://www.w3.org/2000/svg" width="48" height="48" viewBox="0 0 48 48" fill="none"><g id="Frame"><path id="Vector" d="M9.3 44C7.5 44 6.16667 43.6333 5.3 42.9C4.43333 42.1667 4 41.0667 4 39.6C4 37.6667 4.81667 36.4333 6.45 35.9C8.08333 35.3667 10.0167 35.1 12.25 35.1H13.3V32.3C13.3 31.1667 13.2833 30.2417 13.25 29.525C13.2167 28.8083 13.1167 28.2167 12.95 27.75C12.7833 27.2833 12.5917 26.9583 12.375 26.775C12.1583 26.5917 11.8667 26.5 11.5 26.5C11.2 26.5 10.925 26.55 10.675 26.65C10.425 26.75 10.2167 26.8833 10.05 27.05C9.91667 27.2167 9.83333 27.3917 9.8 27.575C9.76667 27.7583 9.78333 27.95 9.85 28.15C10.05 28.5167 10.2833 28.875 10.55 29.225C10.8167 29.575 10.95 29.9833 10.95 30.45C10.95 31.2833 10.6583 31.9917 10.075 32.575C9.49167 33.1583 8.78333 33.45 7.95 33.45C7.11667 33.45 6.40833 33.1583 5.825 32.575C5.24167 31.9917 4.95 31.2833 4.95 30.45C4.95 29.55 5.15 28.8167 5.55 28.25C5.95 27.6833 6.49167 27.2333 7.175 26.9C7.85833 26.5667 8.65 26.3333 9.55 26.2C10.45 26.0667 11.4167 26 12.45 26C15.2833 26 17.25 26.5083 18.35 27.525C19.45 28.5417 20 30.3333 20 32.9V40.25C20 40.8833 20.075 41.35 20.225 41.65C20.375 41.95 20.6333 42.1 21 42.1C21.4 42.1 21.725 41.8 21.975 41.2C22.225 40.6 22.3833 39.6667 22.45 38.4H23C22.9 40.4667 22.5083 41.9167 21.825 42.75C21.1417 43.5833 20 44 18.4 44C16.9667 44 15.8417 43.775 15.025 43.325C14.2083 42.875 13.6833 42.2 13.45 41.3C13.1167 42.2667 12.625 42.9583 11.975 43.375C11.325 43.7917 10.4333 44 9.3 44ZM27.95 44C27.2833 44 26.7417 43.725 26.325 43.175C25.9083 42.625 25.8333 42.0333 26.1 41.4L31.2 27.95C31.4333 27.3833 31.8 26.9167 32.3 26.55C32.8 26.1833 33.3667 26 34 26C34.6333 26 35.2 26.1833 35.7 26.55C36.2 26.9167 36.5667 27.3833 36.8 27.95L41.9 41.4C42.1667 42.0333 42.0917 42.625 41.675 43.175C41.2583 43.725 40.7167 44 40.05 44C39.65 44 39.2833 43.8833 38.95 43.65C38.6167 43.4167 38.3667 43.1 38.2 42.7L37.2 39.8H30.8L29.8 42.7C29.6667 43.0667 29.4333 43.375 29.1 43.625C28.7667 43.875 28.3833 44 27.95 44ZM11.75 42.55C12.1833 42.55 12.55 42.2083 12.85 41.525C13.15 40.8417 13.3 40.0167 13.3 39.05V35.7C12.4333 35.7 11.8 35.9583 11.4 36.475C11 36.9917 10.8 37.8333 10.8 39V39.55C10.8 40.75 10.8667 41.55 11 41.95C11.1333 42.35 11.3833 42.55 11.75 42.55ZM32.1 36.3H35.95L34 30.6L32.1 36.3ZM30.25 22.05C28.65 22.05 27.375 21.4917 26.425 20.375C25.475 19.2583 25 17.75 25 15.85C25 12.3833 26.1 9.54167 28.3 7.325C30.5 5.10833 33.3167 4 36.75 4C38.15 4 39.2833 4.15833 40.15 4.475C41.0167 4.79167 41.45 5.2 41.45 5.7C41.45 5.9 41.4167 6.1 41.35 6.3C41.2833 6.5 41.1667 6.68333 41 6.85C40.8333 7.08333 40.625 7.25 40.375 7.35C40.125 7.45 39.8667 7.46667 39.6 7.4C39.1333 7.26667 38.6 7.15 38 7.05C37.4 6.95 36.85 6.9 36.35 6.9C33.9833 6.9 32.0833 7.7 30.65 9.3C29.2167 10.9 28.5 13.0167 28.5 15.65C28.5 16.3833 28.6333 17.15 28.9 17.95C29.1667 18.75 29.7667 19.15 30.7 19.15C31.0667 19.15 31.425 19.0667 31.775 18.9C32.125 18.7333 32.4333 18.5 32.7 18.2C33.2667 17.6 33.7917 16.6 34.275 15.2C34.7583 13.8 35.2 12.1 35.6 10.1C35.6667 9.66667 35.8417 9.35833 36.125 9.175C36.4083 8.99167 36.8 8.9 37.3 8.9C37.9 8.9 38.3583 9.05833 38.675 9.375C38.9917 9.69167 39.0833 10.0833 38.95 10.55C38.55 11.9833 38.2583 13.2333 38.075 14.3C37.8917 15.3667 37.8 16.3333 37.8 17.2C37.8 17.8667 37.8917 18.35 38.075 18.65C38.2583 18.95 38.5333 19.1 38.9 19.1C39.2667 19.1 39.625 18.9667 39.975 18.7C40.325 18.4333 40.8167 17.9333 41.45 17.2C41.5167 17.1 41.7667 16.9833 42.2 16.85C42.4667 16.85 42.6667 16.95 42.8 17.15C42.9333 17.35 43 17.6333 43 18C43 18.9333 42.4667 19.8333 41.4 20.7C40.3333 21.5667 39.2167 22 38.05 22C37.1833 22 36.4417 21.7667 35.825 21.3C35.2083 20.8333 34.7833 20.1667 34.55 19.3C34.05 20.1667 33.4333 20.8417 32.7 21.325C31.9667 21.8083 31.15 22.05 30.25 22.05ZM6 22V11C6 9.06667 6.68333 7.41667 8.05 6.05C9.41667 4.68333 11.0667 4 13 4C14.9333 4 16.5833 4.68333 17.95 6.05C19.3167 7.41667 20 9.06667 20 11V22H16V18H10V22H6ZM10 14H16V11C16 10.1667 15.7083 9.45833 15.125 8.875C14.5417 8.29167 13.8333 8 13 8C12.1667 8 11.4583 8.29167 10.875 8.875C10.2917 9.45833 10 10.1667 10 11V14Z" fill="#FE4040"></path></g></svg>