<svg xmlns="http://www.w3.org/2000/svg" width="26" height="26" viewBox="0 0 26 26" fill="none"><path d="M21.9105 15.207C20.5592 16.832 18.6263 18.4741 16.3855 20.3899C15.6329 21.0399 14.7605 21.7754 13.8539 22.5623C13.3579 22.9899 12.6223 22.9899 12.1434 22.5623C11.2368 21.7754 10.3815 21.0399 9.6118 20.3899C7.37102 18.4741 5.43812 16.832 4.0868 15.207C2.59865 13.3938 1.88022 11.6662 1.88022 9.78464C1.84601 8.0399 2.47891 6.34648 3.64207 5.04648C4.78812 3.7978 6.39601 3.09648 8.08944 3.11359C9.35523 3.11359 10.5868 3.54122 11.5789 4.32806C12.1263 4.75569 12.5881 5.25174 12.9815 5.81622C13.375 5.25174 13.8539 4.75569 14.3842 4.32806C15.3763 3.54122 16.6079 3.11359 17.8908 3.13069C19.5842 3.11359 21.1921 3.8149 22.3381 5.06359C23.5013 6.36359 24.1342 8.05701 24.1 9.80174C24.1171 11.6662 23.3987 13.3938 21.9105 15.207Z" fill="#F90101"></path></svg>